<svg version="1.1" viewBox="0 0 1277 648" xml:space="preserve" xmlns="http://www.w3.org/2000/svg" xmlns:xlink="http://www.w3.org/1999/xlink"><defs><radialGradient id="radialGradient1054" cx="932.6" cy="255.9" r="164.1" gradientTransform="matrix(.606 -1.111 1.285 .8241 -141 1035)" gradientUnits="userSpaceOnUse"><stop stop-color="#bda4f0" offset="0"/><stop stop-color="#4c5dd7" stop-opacity="0" offset="1"/></radialGradient><radialGradient id="radialGradient5021" cx="109" cy="431.5" r="57.17" gradientTransform="matrix(1.381 -1.188 1.447 1.713 -651.4 -103.6)" gradientUnits="userSpaceOnUse"><stop stop-color="#724e86" offset="0"/><stop stop-color="#ce49a3" offset="1"/></radialGradient><rect id="SVGID_00000003074585205086541970000015166988372166584508_" width="750" height="500"/><path id="SVGID_00000049944472060191588790000008138092306275063191_" d="m240.6 381.5s3.9-1.1 5 0 10.6 17.7 10.6 17.7-30.3 34.2-31.1 35c-0.9 0.9-20.3-4.3-20.1-5.2s2.2-5.6 2.2-5.6l4.1-1.3 14.9-40z"/><path id="SVGID_00000109007228282674387750000013305954661919764894_" d="m285.7 84c-20.6-19.8-46.5-23.6-66.3-22.8-17.5 0.7-33.7 9.6-43.8 23.9-3.7 5.2-4.9 11.8-3.4 18l1.8 7.2 3.3-2.8 2.5-14.2 11.4 3.5 26.5 42.3 23.5 20.9 32.3 3.3c0.1 0.1 51.3-41.8 12.2-79.3z"/><clipPath id="SVGID_00000139973966577205660310000005827510562216689816_-0"><use width="100%" height="100%" overflow="visible" xlink:href="#SVGID_00000003074585205086541970000015166988372166584508_"/></clipPath><linearGradient id="SVGID_00000062152678080955732880000001251185143344736188_-6" x1="255.4" x2="254.7" y1="207.9" y2="208" gradientTransform="matrix(1.185 0 0 1.205 288.9 -784.4)" gradientUnits="userSpaceOnUse"><stop stop-color="#fff" offset="0"/><stop stop-color="#3C3263" offset="1"/></linearGradient><linearGradient id="SVGID_00000015334095189610067110000007763184431972721280_-7" x1="253.9" x2="255.7" y1="207.5" y2="208.7" gradientTransform="matrix(1.185 0 0 1.205 288.9 -784.4)" gradientUnits="userSpaceOnUse"><stop stop-color="#fff" offset="0"/><stop stop-color="#3C3263" offset="1"/></linearGradient><linearGradient id="SVGID_00000135662366236152088080000005182324837458847156_-9" x1="328.5" x2="328.5" y1="372" y2="453.3" gradientTransform="matrix(1.185 0 0 1.205 336.8 -783.5)" gradientUnits="userSpaceOnUse"><stop stop-color="#fff" offset="0"/><stop stop-color="#2A2344" stop-opacity="0" offset="1"/></linearGradient><linearGradient id="SVGID_00000070083623506300913150000003549347937644053635_-4" x1="120.2" x2="120.2" y1="365.3" y2="446.6" gradientTransform="translate(-62.46 3.334)" gradientUnits="userSpaceOnUse"><stop stop-color="#fff" offset="0"/><stop stop-color="#2A2344" stop-opacity="0" offset="1"/></linearGradient><linearGradient id="SVGID_00000162324876794369558870000013716977582968494465_-9" x1="184.6" x2="184.6" y1="368.4" y2="449.7" gradientTransform="matrix(1.185 0 0 1.205 258.5 -806.6)" gradientUnits="userSpaceOnUse"><stop stop-color="#fff" offset="0"/><stop stop-color="#2A2344" stop-opacity="0" offset="1"/></linearGradient><linearGradient id="SVGID_00000033337568043871148290000014404713287555979927_-3" x1="330.5" x2="330.5" y1="228.8" y2="310.1" gradientTransform="matrix(1.185 0 0 1.205 339.7 -818)" gradientUnits="userSpaceOnUse"><stop stop-color="#fff" offset="0"/><stop stop-color="#2A2344" stop-opacity="0" offset="1"/></linearGradient><linearGradient id="SVGID_00000031203737344611630900000009513098269310999965_-9" x1="176.7" x2="176.7" y1="316.5" y2="363.2" gradientTransform="matrix(1.185 0 0 1.205 231.6 -808.1)" gradientUnits="userSpaceOnUse"><stop stop-color="#fff" offset="0"/><stop stop-color="#2A2344" stop-opacity="0" offset="1"/></linearGradient><linearGradient id="SVGID_00000065764674001874098330000002886773569463415983_-5" x1="113.1" x2="113.1" y1="266.9" y2="290.3" gradientTransform="matrix(1.185 0 0 1.205 222.6 -820.5)" gradientUnits="userSpaceOnUse"><stop stop-color="#fff" offset="0"/><stop stop-color="#2A2344" stop-opacity="0" offset="1"/></linearGradient><linearGradient id="SVGID_00000137849691045815117260000002969071376749114261_-7" x1="330.5" x2="330.5" y1="167.8" y2="191.1" gradientTransform="matrix(1.185 0 0 1.205 321.8 -813)" gradientUnits="userSpaceOnUse"><stop stop-color="#fff" offset="0"/><stop stop-color="#2A2344" stop-opacity="0" offset="1"/></linearGradient><linearGradient id="SVGID_00000009562801839904967480000004709470660448234404_-0" x1="74.72" x2="74.72" y1="180.2" y2="203.6" gradientTransform="matrix(1.185 0 0 1.205 222.6 -820.5)" gradientUnits="userSpaceOnUse"><stop stop-color="#fff" offset="0"/><stop stop-color="#2A2344" stop-opacity="0" offset="1"/></linearGradient><linearGradient id="SVGID_00000163762707692139942980000011081566450392800154_-5" x1="153.4" x2="153.4" y1="206" y2="252.8" gradientTransform="matrix(1.185 0 0 1.205 222.6 -820.5)" gradientUnits="userSpaceOnUse"><stop stop-color="#fff" offset="0"/><stop stop-color="#2A2344" stop-opacity="0" offset="1"/></linearGradient><linearGradient id="SVGID_00000087405685089746856700000003259198590841549716_-6" x1="190" x2="190" y1="386.5" y2="433.3" gradientTransform="matrix(1.185 0 0 1.205 258.5 -806.6)" gradientUnits="userSpaceOnUse"><stop stop-color="#fff" offset="0"/><stop stop-color="#2A2344" stop-opacity="0" offset="1"/></linearGradient><clipPath id="SVGID_00000090283932855603927710000000325768768293782952_-5-9"><use width="100%" height="100%" overflow="visible" xlink:href="#SVGID_00000049944472060191588790000008138092306275063191_"/></clipPath><linearGradient id="SVGID_00000099642219374492590660000005888953954823379866_-8-5" x1="217.2" x2="216" y1="491.2" y2="160.8" gradientUnits="userSpaceOnUse"><stop stop-color="#20acde" offset="0"/><stop stop-color="#34569f" stop-opacity="0" offset="1"/></linearGradient><linearGradient id="linearGradient247324" x1="120.2" x2="120.2" y1="365.3" y2="446.6" gradientTransform="matrix(1.185 0 0 1.205 214.8 -804.5)" gradientUnits="userSpaceOnUse" xlink:href="#SVGID_00000070083623506300913150000003549347937644053635_-4"/><linearGradient id="linearGradient199746" x1="120.2" x2="120.2" y1="365.3" y2="446.6" gradientTransform="matrix(1.185 0 0 1.205 627.6 -1044)" gradientUnits="userSpaceOnUse" xlink:href="#SVGID_00000070083623506300913150000003549347937644053635_-4"/><linearGradient id="linearGradient199746-6" x1="120.2" x2="120.2" y1="365.3" y2="446.6" gradientTransform="matrix(1.185 0 0 1.205 -467 -1183)" gradientUnits="userSpaceOnUse" xlink:href="#SVGID_00000070083623506300913150000003549347937644053635_-4"/><linearGradient id="SVGID_00000033337568043871148290000014404713287555979927_-3-6" x1="330.5" x2="330.5" y1="228.8" y2="310.1" gradientTransform="matrix(1.185 0 0 1.205 -754.9 -957.7)" gradientUnits="userSpaceOnUse"><stop stop-color="#fff" offset="0"/><stop stop-color="#2A2344" stop-opacity="0" offset="1"/></linearGradient><linearGradient id="SVGID_00000163762707692139942980000011081566450392800154_-5-5" x1="153.4" x2="153.4" y1="206" y2="252.8" gradientTransform="matrix(1.185 0 0 1.205 -927.3 -969.7)" gradientUnits="userSpaceOnUse"><stop stop-color="#fff" offset="0"/><stop stop-color="#2A2344" stop-opacity="0" offset="1"/></linearGradient><linearGradient id="SVGID_00000065764674001874098330000002886773569463415983_-5-4" x1="113.1" x2="113.1" y1="266.9" y2="290.3" gradientTransform="matrix(1.185 0 0 1.205 -927.3 -969.7)" gradientUnits="userSpaceOnUse"><stop stop-color="#fff" offset="0"/><stop stop-color="#2A2344" stop-opacity="0" offset="1"/></linearGradient><linearGradient id="SVGID_00000009562801839904967480000004709470660448234404_-0-8" x1="74.72" x2="74.72" y1="180.2" y2="203.6" gradientTransform="matrix(1.185 0 0 1.205 -927.3 -969.7)" gradientUnits="userSpaceOnUse"><stop stop-color="#fff" offset="0"/><stop stop-color="#2A2344" stop-opacity="0" offset="1"/></linearGradient><linearGradient id="SVGID_00000009562801839904967480000004709470660448234404_-0-9" x1="74.72" x2="74.72" y1="180.2" y2="203.6" gradientTransform="matrix(1.185 0 0 1.205 301.9 -932.5)" gradientUnits="userSpaceOnUse"><stop stop-color="#fff" offset="0"/><stop stop-color="#2A2344" stop-opacity="0" offset="1"/></linearGradient><linearGradient id="SVGID_00000065764674001874098330000002886773569463415983_-5-4-7" x1="113.1" x2="113.1" y1="266.9" y2="290.3" gradientTransform="matrix(1.185 0 0 1.205 78.85 -742)" gradientUnits="userSpaceOnUse"><stop stop-color="#fff" offset="0"/><stop stop-color="#2A2344" stop-opacity="0" offset="1"/></linearGradient><linearGradient id="SVGID_00000163762707692139942980000011081566450392800154_-5-5-3" x1="153.4" x2="153.4" y1="206" y2="252.8" gradientTransform="matrix(1.185 0 0 1.205 78.85 -742)" gradientUnits="userSpaceOnUse"><stop stop-color="#fff" offset="0"/><stop stop-color="#2A2344" stop-opacity="0" offset="1"/></linearGradient><linearGradient id="SVGID_00000137849691045815117260000002969071376749114261_-7-6" x1="330.5" x2="330.5" y1="167.8" y2="191.1" gradientTransform="matrix(1.185 0 0 1.205 -684.4 -585.4)" gradientUnits="userSpaceOnUse"><stop stop-color="#fff" offset="0"/><stop stop-color="#2A2344" stop-opacity="0" offset="1"/></linearGradient><linearGradient id="SVGID_00000009562801839904967480000004709470660448234404_-0-8-5" x1="74.72" x2="74.72" y1="180.2" y2="203.6" gradientTransform="matrix(1.185 0 0 1.205 78.85 -742)" gradientUnits="userSpaceOnUse"><stop stop-color="#fff" offset="0"/><stop stop-color="#2A2344" stop-opacity="0" offset="1"/></linearGradient><linearGradient id="SVGID_00000163762707692139942980000011081566450392800154_-5-5-5" x1="153.4" x2="153.4" y1="206" y2="252.8" gradientTransform="matrix(1.185 0 0 1.205 -1004 -704.2)" gradientUnits="userSpaceOnUse"><stop stop-color="#fff" offset="0"/><stop stop-color="#2A2344" stop-opacity="0" offset="1"/></linearGradient><linearGradient id="SVGID_00000137849691045815117260000002969071376749114261_-7-9" x1="330.5" x2="330.5" y1="167.8" y2="191.1" gradientTransform="matrix(1.185 0 0 1.205 398.7 -547.5)" gradientUnits="userSpaceOnUse"><stop stop-color="#fff" offset="0"/><stop stop-color="#2A2344" stop-opacity="0" offset="1"/></linearGradient><linearGradient id="linearGradient199746-9" x1="120.2" x2="120.2" y1="365.3" y2="446.6" gradientTransform="matrix(1.185 0 0 1.205 615 -852.9)" gradientUnits="userSpaceOnUse" xlink:href="#SVGID_00000070083623506300913150000003549347937644053635_-4"/><linearGradient id="SVGID_00000009562801839904967480000004709470660448234404_-0-9-8" x1="74.72" x2="74.72" y1="180.2" y2="203.6" gradientTransform="matrix(1.185 0 0 1.205 -688.6 472.1)" gradientUnits="userSpaceOnUse"><stop stop-color="#fff" offset="0"/><stop stop-color="#2A2344" stop-opacity="0" offset="1"/></linearGradient><linearGradient id="SVGID_00000033337568043871148290000014404713287555979927_-3-6-6" x1="330.5" x2="330.5" y1="228.8" y2="310.1" gradientTransform="matrix(1.185 0 0 1.205 91.8 467.1)" gradientUnits="userSpaceOnUse"><stop stop-color="#fff" offset="0"/><stop stop-color="#2A2344" stop-opacity="0" offset="1"/></linearGradient><linearGradient id="linearGradient199746-6-2" x1="120.2" x2="120.2" y1="365.3" y2="446.6" gradientTransform="matrix(1.185 0 0 1.205 393.1 360.5)" gradientUnits="userSpaceOnUse" xlink:href="#SVGID_00000070083623506300913150000003549347937644053635_-4"/><linearGradient id="SVGID_00000009562801839904967480000004709470660448234404_-0-5" x1="74.72" x2="74.72" y1="180.2" y2="203.6" gradientTransform="matrix(1.185 0 0 1.205 -513 591.2)" gradientUnits="userSpaceOnUse"><stop stop-color="#fff" offset="0"/><stop stop-color="#2A2344" stop-opacity="0" offset="1"/></linearGradient><linearGradient id="linearGradient452118" x1="74.72" x2="74.72" y1="180.2" y2="203.6" gradientTransform="matrix(1.185 0 0 1.205 -774.9 514.3)" gradientUnits="userSpaceOnUse" xlink:href="#SVGID_00000009562801839904967480000004709470660448234404_-0-9-8"/><linearGradient id="linearGradient454063" x1="74.72" x2="74.72" y1="180.2" y2="203.6" gradientTransform="matrix(1.185 0 0 1.205 -685.7 559.2)" gradientUnits="userSpaceOnUse" xlink:href="#SVGID_00000009562801839904967480000004709470660448234404_-0-9-8"/><linearGradient id="linearGradient454098" x1="120.2" x2="120.2" y1="365.3" y2="446.6" gradientTransform="matrix(.862 0 0 .8028 557.4 499.9)" gradientUnits="userSpaceOnUse" xlink:href="#SVGID_00000070083623506300913150000003549347937644053635_-4"/></defs>


<path d="m76.48 593.9c-27.39-15.06-3.683-64.84 123.6-73.87 379-26.89 1234-20.67 1035 50.37-62.06 8.838 71.27 57.04-579.7 40.84-203.2 7.186-545.6 19.46-579.1-17.34z" fill="#484f68"/><g transform="matrix(1.039 0 0 1.033 -280.4 -80.83)"><path d="m874.3 601 35.32 0.1128c2.637 8e-3 15.83-14.44 15.83-18.44v-55.08c0-8.759-10.65-6.749-13.28-6.818l-39.06-1.026c-2.637-0.0693-16.28-0.3536-16.05 8.406v55.08c0 3.997 14.6 17.76 17.24 17.77z" fill="#97a6b7" stroke-width=".8578" style="paint-order:fill markers stroke"/><g transform="translate(257.8 58.28)" stroke-linecap="round" stroke-linejoin="round"><path d="m268.2 33.36h685.8c2.87 0 5.18 1.604 5.18 3.597v420.3c0 1.993-2.31 3.597-5.18 3.597h-685.8c-2.87 0-5.18-1.604-5.18-3.597v-420.3c0-1.993 2.31-3.597 5.18-3.597z" color="#000000" fill="#2f3543" stroke-width="11.5" style="-inkscape-stroke:none;paint-order:fill markers stroke"/><path d="m268.2 27.61c-2.506 0-4.879 0.645-6.945 2.08-2.067 1.435-3.984 4.049-3.984 7.268v420.3c0 3.218 1.918 5.833 3.984 7.268 2.067 1.435 4.439 2.078 6.945 2.078h685.8c2.506 0 4.881-0.6431 6.947-2.078 2.067-1.435 3.984-4.049 3.984-7.268v-420.3c0-3.218-1.918-5.833-3.984-7.268-2.067-1.435-4.441-2.08-6.947-2.08zm0.5703 11.5h684.7v416h-684.7z" color="#000000" fill="#a7b3c2" style="-inkscape-stroke:none;paint-order:fill markers stroke"/></g><path d="m526.4 487h684.9v26.38h-684.9z" fill="#6b8b79" opacity=".852" style="paint-order:fill markers stroke"/><g transform="matrix(.3065 0 0 2.106 643.4 -733.6)" fill="#a7b3c2" stroke-linecap="round" stroke-linejoin="round"><path d="m396.2 631.4 859.6 0.7812" color="#000000" stroke-width="8.739" style="-inkscape-stroke:none"/><path d="m437.4 625.3c-32.86-0.0702-36.32 9.332-0.5319 9.491l785 0.0281c25.67-0.0177 26.49-9.181-3.14-9.407z" color="#000000" stroke-width=".9553" style="-inkscape-stroke:none"/></g><g transform="matrix(1.185 0 0 1.185 80.92 -2.843)"><path d="m575.7 223.2 302.2 1e-5 -0.1958 158.9c0.015 6.771-3.679 7.769-8.308 7.31l-294.1 1.009c0.1134-55.72 0.2269-111.4 0.3403-167.2z" fill="#425874" stroke-opacity="0" style="paint-order:fill markers stroke"/><rect x="582.3" y="270.2" width="163.6" height="65.3" rx="7.473" ry="4.085" fill="#49637d" stroke-width="1.24" style="paint-order:fill markers stroke"/><path d="m469.5 103.4 106.4 0.3832-0.595 286.6-105.8 0.1144c-6.039 7e-3 -10.9-5.611-10.9-12.58v-261.9c0-6.97 4.862-12.58 10.9-12.58z" fill="#3b5069" style="paint-order:fill markers stroke"/><rect x="581.4" y="235.6" width="71.24" height="23.24" rx="4.106" ry="3.987" fill="#1494ff" style="paint-order:fill markers stroke"/><path d="m612.1 240.1v13.9l10.54-5.495c1.637-1.03 1.233-1.847 0-2.579z" fill="#fff"/><rect x="658" y="235" width="213.1" height="23.52" rx="4.106" ry="3.987" fill="#33455b" style="paint-order:fill markers stroke"/><rect x="663.3" y="241.7" width="147.9" height="6.055" rx="1.853" ry="1.625" fill="#577190" style="paint-order:fill markers stroke"/><rect x="663.6" y="250.2" width="116.3" height="3.569" rx="1.853" ry="1.625" fill="#5a7493" style="paint-order:fill markers stroke"/><rect x="663.6" y="250.2" width="57.23" height="3.569" rx="1.853" ry="1.625" fill="#00bff3" style="paint-order:fill markers stroke"/><g transform="translate(-284.1 -89.84)" fill="#46607a"><rect x="1107" y="330.5" width="12.52" height="12.7" rx="1.728" ry="1.619" style="paint-order:fill markers stroke"/><rect x="1122" y="330.5" width="12.52" height="12.7" rx="1.728" ry="1.619" style="paint-order:fill markers stroke"/><rect x="1137" y="330.5" width="12.52" height="12.7" rx="1.728" ry="1.619" style="paint-order:fill markers stroke"/></g><path d="m575.7 103.5 291.1 0.5123c7.899 0.3652 11.35 5.5 11.48 11.36l-0.403 107.8h-302.2z" fill="url(#radialGradient1054)" style="paint-order:fill markers stroke"/><rect x="575.7" y="223.2" width="301.6" height="165.7" rx="11.82" ry="12.58" fill-opacity="0" style="paint-order:fill markers stroke"/><g transform="matrix(1.555 0 0 1.353 -922 -242.3)" fill="#5a7493"><rect x="1085" y="378.8" width="14.81" height="16.56" rx="1.728" ry="1.619" style="paint-order:fill markers stroke"/><rect x="1102" y="378.8" width="14.81" height="16.56" rx="1.728" ry="1.619" style="paint-order:fill markers stroke"/><rect x="1118" y="378.8" width="14.81" height="16.56" rx="1.728" ry="1.619" style="paint-order:fill markers stroke"/><rect x="1135" y="378.8" width="14.81" height="16.56" rx="1.728" ry="1.619" style="paint-order:fill markers stroke"/><rect x="1084" y="434.1" width="30.6" height="20.15" rx="1.728" ry="1.619" style="paint-order:fill markers stroke"/><rect x="1119" y="434.1" width="30.6" height="20.15" rx="1.728" ry="1.619" style="paint-order:fill markers stroke"/></g><path d="m745.9 312.2 0.0213 61.15c0 2.263-3.075 4.085-6.892 4.085h-149.8c-3.819 0-6.892-1.822-6.892-4.085l-0.0194-61.09z" fill="#33455b" stroke-width="1.24" style="paint-order:fill markers stroke"/><rect x="471.9" y="120.6" width="77.93" height="11.59" rx="1.853" ry="1.625" fill="#597392" style="paint-order:fill markers stroke"/><rect x="471.9" y="141.9" width="64.42" height="12.76" rx="1.853" ry="1.625" fill="#7863b6" style="paint-order:fill markers stroke"/></g></g><path d="m13.72 565.6c-4.1-4.238-1.619-27.62 15.73-37.6 15.92-9.158-1.138-26.36-1.355-46.55-0.1684-15.68 20.04-34.33 8.332-45.04-46.9-42.93-34.11-157-11.33-194.8-3.701-61.52-41.62-101.1-10.63-128.1 46.83-40.87 185.4-36.6 256-21.18 37.81 8.267 69.23-21.17 99.81 11.31 39.51 41.95 71.37 150.5 48.5 193.8-44.3 47.77 58.07 248.8-0.7502 276-113.8 52.81-220.2 8.771-362 7.93-31.54-0.1871-46.62-4.429-42.34-15.88z" fill="#3d4554"/><g transform="matrix(.9826 0 0 .9915 14.18 72.77)" fill="#a2a3a4"><path d="m386.7 162.4a11.88 11.74 0 0 1-11.88 11.74 11.88 11.74 0 0 1-11.89-11.73 11.88 11.74 0 0 1 11.88-11.74 11.88 11.74 0 0 1 11.89 11.73" style="paint-order:fill markers stroke"/><path d="m44.88 82.62a9.009 9.112 0 0 1-9.007 9.112 9.009 9.112 0 0 1-9.011-9.109 9.009 9.112 0 0 1 9.003-9.116 9.009 9.112 0 0 1 9.014 9.105" style="paint-order:fill markers stroke"/><path d="m20.5 104.5h30.75c-0.1631-4.431-0.09744-8.879-8-12.75-5.82 4.008-10.41 2.485-14.75 0.25-6.515 2.919-7.557 7.612-8 12.5z"/><path d="m354.9 191.3h40.12c-0.2128-5.783-0.1271-11.59-10.44-16.64-7.594 5.231-13.59 3.242-19.24 0.3263-8.5 3.809-9.859 9.934-10.44 16.31z"/></g><rect x="74.27" y="114.5" width="198.6" height="62.21" rx="3.763" ry="3.123" fill="#294e7f" stroke-width=".9871" style="paint-order:fill markers stroke"/><rect x="107.2" y="185.7" width="242.8" height="76.59" rx="3.763" ry="3.123" fill="#556f92" stroke-width=".9871" style="paint-order:fill markers stroke"/><g transform="matrix(.9826 0 0 .9915 14.18 72.77)" fill="#a2a3a4"><path d="m44.88 244.6a9.009 9.112 0 0 1-9.007 9.112 9.009 9.112 0 0 1-9.011-9.109 9.009 9.112 0 0 1 9.003-9.116 9.009 9.112 0 0 1 9.014 9.105" style="paint-order:fill markers stroke"/><path d="m20.5 266.5h30.75c-0.1631-4.431-0.09744-8.879-8-12.75-5.82 4.008-10.41 2.485-14.75 0.25-6.515 2.919-7.557 7.612-8 12.5z"/><path d="m386.7 320.4a11.88 11.74 0 0 1-11.88 11.74 11.88 11.74 0 0 1-11.89-11.73 11.88 11.74 0 0 1 11.88-11.74 11.88 11.74 0 0 1 11.89 11.73" style="paint-order:fill markers stroke"/><path d="m354.9 349.3h40.12c-0.2128-5.783-0.1271-11.59-10.44-16.64-7.594 5.231-13.59 3.242-19.24 0.3263-8.5 3.809-9.859 9.934-10.44 16.31z"/></g><g stroke-width=".9871"><rect x="74.27" y="270.7" width="206" height="66.67" rx="3.763" ry="3.123" fill="#294e7f" style="paint-order:fill markers stroke"/><rect x="115.1" y="346.8" width="234.9" height="72.12" rx="3.763" ry="3.123" fill="#556f92" style="paint-order:fill markers stroke"/><path d="m58.28 537.4a8.852 9.035 0 0 1-8.85 9.035 8.852 9.035 0 0 1-8.854-9.032 8.852 9.035 0 0 1 8.846-9.039 8.852 9.035 0 0 1 8.857 9.028" fill="#a2a3a4" style="paint-order:fill markers stroke"/><path d="m34.32 559.1h30.21c-0.1603-4.394-0.09575-8.804-7.861-12.64-5.719 3.974-10.23 2.464-14.49 0.2479-6.402 2.894-7.425 7.548-7.861 12.39z" fill="#a2a3a4"/><rect x="74.27" y="442.2" width="322.9" height="116.2" rx="3.763" ry="3.123" fill="#294e7f" style="paint-order:fill markers stroke"/></g><g transform="matrix(1.388 0 0 1.478 -14.05 61.56)" fill="#dadada" aria-label="Привет го катку..))"><path d="m77.53 60.74h-2.25v-7.037h-3.322v7.037h-2.25v-8.725h7.822z"/><path d="m86.51 57.35q0 0.8145-0.252 1.482-0.2461 0.668-0.6504 1.102-0.4219 0.457-0.9551 0.6914t-1.143 0.2344q-0.5625 0-0.9551-0.123-0.3926-0.1172-0.8027-0.334v2.742h-2.109v-8.994h2.109v0.6855q0.4863-0.3867 0.9902-0.627 0.5098-0.2402 1.172-0.2402 1.23 0 1.91 0.9023 0.6855 0.9023 0.6855 2.479zm-2.174 0.04102q0-0.9609-0.3281-1.395t-1.037-0.4336q-0.2988 0-0.6152 0.09375-0.3164 0.08789-0.6035 0.2578v3.311q0.2109 0.08203 0.4512 0.1055 0.2402 0.02344 0.4746 0.02344 0.8379 0 1.248-0.4863 0.4102-0.4922 0.4102-1.477z"/><path d="m94.68 60.74h-2.045v-4.025l-2.859 4.025h-1.746v-6.58h2.045v3.604l2.648-3.604h1.957z"/><path d="m103.3 58.75q0 0.4746-0.1934 0.8438-0.1875 0.3691-0.5039 0.6152-0.3984 0.3105-0.8438 0.4219-0.4394 0.1055-1.049 0.1055h-4.008v-6.58h3.838q0.7207 0 1.061 0.04687 0.3398 0.04687 0.668 0.2285 0.3457 0.1875 0.5156 0.498 0.1758 0.3105 0.1758 0.7383 0 0.4863-0.2812 0.8555-0.2754 0.3633-0.668 0.5566v0.06445q0.5449 0.1348 0.9141 0.5449 0.375 0.4043 0.375 1.061zm-2.467-2.613q0-0.3633-0.2227-0.5156-0.2168-0.1523-0.7031-0.1523h-1.113v1.312h1.148q0.4277 0 0.6562-0.1699 0.2344-0.1758 0.2344-0.4746zm0.293 2.549q0-0.4277-0.2461-0.5977-0.2402-0.1758-0.7148-0.1758h-1.371v1.506h1.406q0.4336 0 0.6797-0.1934 0.2461-0.1992 0.2461-0.5391z"/><path d="m111.3 57.83h-4.828q0.0469 0.7734 0.5859 1.184 0.5449 0.4102 1.6 0.4102 0.668 0 1.295-0.2402t0.9902-0.5156h0.2344v1.693q-0.7148 0.2871-1.348 0.416-0.6328 0.1289-1.4 0.1289-1.98 0-3.035-0.8906t-1.055-2.537q0-1.629 0.9961-2.578 1.002-0.9551 2.742-0.9551 1.605 0 2.414 0.8145 0.8086 0.8086 0.8086 2.332zm-2.098-1.236q-0.0176-0.6621-0.3281-0.9961-0.3106-0.334-0.9668-0.334-0.6094 0-1.002 0.3164t-0.4395 1.014z"/><path d="m118.1 55.58h-2.098v5.15h-2.109v-5.15h-2.098v-1.43h6.305z"/><path d="m128.6 55.62h-3.211v5.115h-2.109v-6.58h5.32z"/><path d="m136.4 57.45q0 1.623-0.9492 2.561-0.9434 0.9316-2.654 0.9316-1.711 0-2.66-0.9316-0.9434-0.9375-0.9434-2.561 0-1.635 0.9492-2.566 0.9551-0.9316 2.654-0.9316 1.723 0 2.66 0.9375 0.9434 0.9375 0.9434 2.561zm-2.596 1.6q0.2051-0.252 0.3047-0.6035 0.1055-0.3574 0.1055-0.9844 0-0.5801-0.1055-0.9727t-0.293-0.627q-0.1875-0.2402-0.4512-0.3398-0.2637-0.09961-0.5684-0.09961t-0.5449 0.08203q-0.2344 0.08203-0.4512 0.3281-0.1934 0.2285-0.3106 0.627-0.1113 0.3984-0.1113 1.002 0 0.5391 0.0996 0.9375 0.0996 0.3926 0.293 0.6328 0.1875 0.2285 0.4453 0.334 0.2637 0.1055 0.5976 0.1055 0.2871 0 0.5449-0.09375 0.2637-0.09961 0.4453-0.3281z"/><path d="m149 60.74h-2.438l-1.764-2.607h-0.6738v2.607h-2.109v-6.58h2.109v2.643q0.5859-0.0059 0.8086-0.123 0.2226-0.123 0.5156-0.6387 0.0879-0.1523 0.2109-0.3926 0.123-0.2402 0.1934-0.3691 0.3223-0.5742 0.75-0.8496 0.4336-0.2812 1.201-0.2812 0.2227 0 0.4688 0.0059 0.252 0.0059 0.3398 0.0059v1.758h-0.5742q-0.3516 0-0.5625 0.1758-0.2051 0.1758-0.3574 0.5215-0.1289 0.2871-0.2344 0.457-0.1055 0.1641-0.2695 0.2812z"/><path d="m154.1 59.02v-1.371q-0.4277 0.03516-0.9258 0.09961-0.498 0.05859-0.7559 0.1406-0.3164 0.09961-0.4863 0.293-0.1641 0.1875-0.1641 0.498 0 0.2051 0.0352 0.334t0.1758 0.2461q0.1348 0.1172 0.3223 0.1758 0.1875 0.05273 0.5859 0.05273 0.3164 0 0.6387-0.1289 0.3281-0.1289 0.5742-0.3398zm0 1.02q-0.1699 0.1289-0.4219 0.3105t-0.4746 0.2871q-0.3106 0.1406-0.6445 0.2051-0.334 0.07031-0.7324 0.07031-0.9375 0-1.57-0.5801-0.6328-0.5801-0.6328-1.482 0-0.7207 0.3223-1.178 0.3223-0.457 0.9141-0.7207 0.5859-0.2637 1.453-0.375 0.8672-0.1113 1.799-0.1641v-0.03516q0-0.5449-0.4453-0.75-0.4453-0.2109-1.312-0.2109-0.5215 0-1.113 0.1875-0.5918 0.1816-0.8496 0.2812h-0.1934v-1.588q0.334-0.08789 1.084-0.2051 0.7558-0.123 1.512-0.123 1.799 0 2.596 0.5566 0.8027 0.5508 0.8027 1.734v4.477h-2.092z"/><path d="m163.5 55.58h-2.098v5.15h-2.109v-5.15h-2.098v-1.43h6.305z"/><path d="m171.5 60.74h-2.438l-1.764-2.607h-0.6738v2.607h-2.109v-6.58h2.109v2.643q0.5859-0.0059 0.8086-0.123 0.2226-0.123 0.5156-0.6387 0.0879-0.1523 0.2109-0.3926 0.123-0.2402 0.1934-0.3691 0.3223-0.5742 0.75-0.8496 0.4336-0.2812 1.201-0.2812 0.2227 0 0.4688 0.0059 0.252 0.0059 0.3398 0.0059v1.758h-0.5742q-0.3516 0-0.5625 0.1758-0.2051 0.1758-0.3574 0.5215-0.1289 0.2871-0.2344 0.457-0.1055 0.1641-0.2695 0.2812z"/><path d="m175.6 58.41 1.5-4.254h2.168l-3.656 8.994h-2.285l1.043-2.461-2.561-6.533h2.215z"/><path d="m182.7 60.74h-2.191v-2.303h2.191z"/><path d="m187 60.74h-2.191v-2.303h2.191z"/><path d="m193.5 57.38q0 1.658-0.5449 3.053-0.5391 1.395-1.664 2.713h-2.209v-0.1699q0.4688-0.416 0.9141-0.9785t0.791-1.26q0.3633-0.7266 0.5742-1.541 0.2168-0.8145 0.2168-1.816 0-0.9609-0.2227-1.811-0.2168-0.8496-0.5684-1.547-0.3691-0.7266-0.8027-1.266-0.4277-0.5449-0.9024-0.9727v-0.1699h2.209q1.125 1.318 1.664 2.713 0.5449 1.395 0.5449 3.053z"/><path d="m200 57.38q0 1.658-0.5449 3.053-0.5391 1.395-1.664 2.713h-2.209v-0.1699q0.4688-0.416 0.9141-0.9785t0.791-1.26q0.3633-0.7266 0.5742-1.541 0.2168-0.8145 0.2168-1.816 0-0.9609-0.2226-1.811-0.2168-0.8496-0.5684-1.547-0.3691-0.7266-0.8027-1.266-0.4277-0.5449-0.9023-0.9727v-0.1699h2.209q1.125 1.318 1.664 2.713 0.5449 1.395 0.5449 3.053z"/></g><g transform="matrix(1.388 0 0 1.478 19.51 137.9)" fill="#dadada" aria-label="Привет 1 минуту... "><path d="m77.53 60.74h-2.25v-7.037h-3.322v7.037h-2.25v-8.725h7.822z"/><path d="m86.51 57.35q0 0.8145-0.252 1.482-0.2461 0.668-0.6504 1.102-0.4219 0.457-0.9551 0.6914t-1.143 0.2344q-0.5625 0-0.9551-0.123-0.3926-0.1172-0.8027-0.334v2.742h-2.109v-8.994h2.109v0.6855q0.4863-0.3867 0.9902-0.627 0.5098-0.2402 1.172-0.2402 1.23 0 1.91 0.9023 0.6855 0.9023 0.6855 2.479zm-2.174 0.04102q0-0.9609-0.3281-1.395t-1.037-0.4336q-0.2988 0-0.6152 0.09375-0.3164 0.08789-0.6035 0.2578v3.311q0.2109 0.08203 0.4512 0.1055 0.2402 0.02344 0.4746 0.02344 0.8379 0 1.248-0.4863 0.4102-0.4922 0.4102-1.477z"/><path d="m94.68 60.74h-2.045v-4.025l-2.859 4.025h-1.746v-6.58h2.045v3.604l2.648-3.604h1.957z"/><path d="m103.3 58.75q0 0.4746-0.1934 0.8438-0.1875 0.3691-0.5039 0.6152-0.3984 0.3105-0.8438 0.4219-0.4394 0.1055-1.049 0.1055h-4.008v-6.58h3.838q0.7207 0 1.061 0.04687 0.3398 0.04687 0.668 0.2285 0.3457 0.1875 0.5156 0.498 0.1758 0.3105 0.1758 0.7383 0 0.4863-0.2812 0.8555-0.2754 0.3633-0.668 0.5566v0.06445q0.5449 0.1348 0.9141 0.5449 0.375 0.4043 0.375 1.061zm-2.467-2.613q0-0.3633-0.2227-0.5156-0.2168-0.1523-0.7031-0.1523h-1.113v1.312h1.148q0.4277 0 0.6562-0.1699 0.2344-0.1758 0.2344-0.4746zm0.293 2.549q0-0.4277-0.2461-0.5977-0.2402-0.1758-0.7148-0.1758h-1.371v1.506h1.406q0.4336 0 0.6797-0.1934 0.2461-0.1992 0.2461-0.5391z"/><path d="m111.3 57.83h-4.828q0.0469 0.7734 0.5859 1.184 0.5449 0.4102 1.6 0.4102 0.668 0 1.295-0.2402t0.9902-0.5156h0.2344v1.693q-0.7148 0.2871-1.348 0.416-0.6328 0.1289-1.4 0.1289-1.98 0-3.035-0.8906t-1.055-2.537q0-1.629 0.9961-2.578 1.002-0.9551 2.742-0.9551 1.605 0 2.414 0.8145 0.8086 0.8086 0.8086 2.332zm-2.098-1.236q-0.0176-0.6621-0.3281-0.9961-0.3106-0.334-0.9668-0.334-0.6094 0-1.002 0.3164t-0.4395 1.014z"/><path d="m118.1 55.58h-2.098v5.15h-2.109v-5.15h-2.098v-1.43h6.305z"/><path d="m129.7 60.74h-5.824v-1.523h1.84v-4.611h-1.84v-1.424q0.4219 0 0.8086-0.04687 0.3867-0.05273 0.6445-0.1758 0.3047-0.1465 0.457-0.3809 0.1524-0.2344 0.1758-0.5859h1.939v7.225h1.799z"/><path d="m143.9 60.74h-2.057v-4.084l-1.494 2.695h-0.9258l-1.494-2.695v4.084h-1.998v-6.58h2.291l1.693 2.988 1.693-2.988h2.291z"/><path d="m152.5 60.74h-2.045v-4.025l-2.859 4.025h-1.746v-6.58h2.045v3.604l2.648-3.604h1.957z"/><path d="m161.2 60.74h-2.109v-2.807h-2.426v2.807h-2.109v-6.58h2.109v2.268h2.426v-2.268h2.109z"/><path d="m166.2 58.41 1.5-4.254h2.168l-3.656 8.994h-2.285l1.043-2.461-2.561-6.533h2.215z"/><path d="m176.4 55.58h-2.098v5.15h-2.109v-5.15h-2.098v-1.43h6.305z"/><path d="m180.4 58.41 1.5-4.254h2.168l-3.656 8.994h-2.285l1.043-2.461-2.561-6.533h2.215z"/><path d="m187.5 60.74h-2.191v-2.303h2.191z"/><path d="m191.8 60.74h-2.191v-2.303h2.191z"/><path d="m196.2 60.74h-2.191v-2.303h2.191z"/></g><path d="m314.8 209.2c4.006-3.224 7.916-3.24 12.51 0.22 2.498 2.344 4.43 3.952 5.437 6.745 3.489-2.62 4.798-1.955 4.953 1.261-0.0626 2.396-1.313 4.287-2.7 6.023 0.5679 2.474 0.9086 5.024 0.4328 7.013-2.024 5.247-4.762 9.453-9.158 8.842-2.896-1.122-0.7929-1.955-0.464-2.393-3.78 0.3894-6.728 0.3359-8.489-0.1549-0.8052 1.728-1.256 2.882-2.943 2.914-2.373-0.6729-2.067-1.3-2.512-2.745-6.11-0.1578-6.62-7.698-5.307-12.18 0.6393-0.7855-0.7089-1.592-1.489-3.504-1.096-2.688-1.178-4.604 0.8596-6.351 1.003-0.7725 1.892-0.0696 3.31 1.231 0.8297-2.033 2.6-4.794 5.562-6.929z" fill="#f3ca33" stroke="#000" stroke-width=".4538"/><g stroke-width=".9871"><path d="m311.5 218c0.1105 7.674 3.212 13.72 9.384 14.27 5.568-0.5796 8.177-4.707 9.029-11.39 0.3128-1.415 0.091-2.482-0.4058-3.369-6.761 1.058-13.44 0.7333-18.01 0.4955z" fill="#5f4d4d"/><path d="m314.5 228.5c2.893-3.752 9.337-3.384 13.7-1.156-2.159 3.694-4.749 4.482-7.238 4.892-3.646-0.3361-5.171-1.836-6.464-3.736z" fill="#c32729"/><path d="m313 215.5c0.2738 0.1721 1.196-0.8168 1.65-0.7357 0.9691 0.1367 1.812 0.0819 2.717 4e-5 0.1783 0.0489 1.148-0.0504 0.0638-0.2891 0.2535-0.5224-0.4138-2.625-1.812-2.391-0.8666 0.2462-1.335 1.097-1.524 2.312-0.8428 0.3742-1.253 1.017-1.094 1.104z"/><path d="m324.3 215.1c0.3262 0.0445 1.066-0.1465 1.511-0.0437 0.8716 0.1459 2.082 0.2772 3.205 0.3583 0.1423 9e-3 1.062 0.1842-0.026-0.3095 0.0627-0.6372-0.9164-3.213-2.047-2.866-0.8927 0.3047-1.673 1.55-1.676 2.349-0.7325 0.132-0.8535 0.2707-1.005 0.348-0.044 0.054-0.0843 0.1083 0.0373 0.1626z" fill="#080808"/><path d="m316.5 221.8c-1.619-0.8342-1.891-2.305-1.89-3.666 1.623 0.0497 3.162 0.0437 4.785 0.0929-0.155 2.06-1.047 4.031-2.896 3.574z" fill="#fff"/><path d="m322.8 218.1c-0.2092 2.472-1.155 2.415-1.693 2.545-0.9575-0.6589-0.6528-1.33-0.7068-2.474 4e-3 0.02 1.807-0.0375 2.4-0.0714z" fill="#fff"/></g><path d="m281.2 367.1c4.006-3.224 7.916-3.24 12.51 0.22 2.498 2.344 4.43 3.952 5.437 6.745 3.489-2.62 4.798-1.955 4.953 1.261-0.0626 2.396-1.313 4.287-2.7 6.023 0.5679 2.474 0.9086 5.024 0.4328 7.013-2.024 5.247-4.762 9.453-9.158 8.842-2.896-1.122-0.7929-1.955-0.464-2.393-3.78 0.3894-6.728 0.3359-8.489-0.1549-0.8052 1.728-1.256 2.882-2.943 2.914-2.373-0.6728-2.067-1.3-2.512-2.745-6.11-0.1577-6.62-7.698-5.307-12.18 0.6393-0.7855-0.709-1.592-1.489-3.504-1.096-2.688-1.178-4.604 0.8596-6.351 1.003-0.7725 1.892-0.0696 3.31 1.231 0.8297-2.033 2.6-4.794 5.562-6.929z" fill="#f3ca33" stroke="#000" stroke-width=".4538"/><g stroke-width=".9871"><path d="m277.9 375.8c0.1106 7.674 3.212 13.72 9.384 14.27 5.568-0.5796 8.177-4.707 9.029-11.39 0.3128-1.415 0.091-2.482-0.4058-3.369-6.761 1.058-13.44 0.7332-18.01 0.4955z" fill="#5f4d4d"/><path d="m280.9 386.4c2.893-3.752 9.337-3.384 13.7-1.156-2.159 3.694-4.749 4.482-7.238 4.892-3.646-0.3361-5.171-1.836-6.464-3.736z" fill="#c32729"/><path d="m279.4 373.4c0.2738 0.1721 1.196-0.8168 1.65-0.7357 0.9691 0.1367 1.812 0.0819 2.717 3e-5 0.1784 0.049 1.148-0.0505 0.0638-0.2891 0.2535-0.5224-0.4138-2.625-1.812-2.391-0.8666 0.2462-1.335 1.097-1.524 2.312-0.8428 0.3742-1.253 1.017-1.094 1.104z"/><path d="m290.7 372.8c0.3262 0.0445 1.066-0.1465 1.511-0.0437 0.8716 0.146 2.082 0.2772 3.205 0.3584 0.1423 9e-3 1.062 0.1842-0.026-0.3094 0.0626-0.6372-0.9164-3.213-2.047-2.866-0.8927 0.3047-1.673 1.55-1.676 2.349-0.7325 0.132-0.8535 0.2707-1.005 0.348-0.044 0.054-0.0843 0.1082 0.0373 0.1626z" fill="#080808"/><path d="m282.9 379.6c-1.619-0.8342-1.892-2.305-1.89-3.666 1.623 0.0496 3.162 0.0437 4.785 0.0929-0.1549 2.06-1.047 4.031-2.896 3.574z" fill="#fff"/><path d="m289.2 376c-0.2092 2.472-1.155 2.415-1.693 2.545-0.9576-0.6589-0.6528-1.33-0.7068-2.474 4e-3 0.02 1.807-0.0376 2.4-0.0714z" fill="#fff"/></g><path d="m319.4 367.4c4.006-3.224 7.916-3.24 12.51 0.22 2.498 2.344 4.43 3.952 5.437 6.745 3.489-2.62 4.798-1.955 4.953 1.261-0.0626 2.396-1.313 4.287-2.7 6.023 0.5679 2.474 0.9086 5.024 0.4328 7.013-2.024 5.247-4.762 9.453-9.158 8.842-2.896-1.122-0.7929-1.955-0.464-2.393-3.78 0.3894-6.728 0.3359-8.489-0.1549-0.8052 1.728-1.256 2.882-2.943 2.914-2.373-0.6729-2.067-1.3-2.512-2.745-6.11-0.1578-6.62-7.698-5.307-12.18 0.6393-0.7855-0.709-1.592-1.489-3.504-1.096-2.688-1.178-4.604 0.8596-6.351 1.003-0.7725 1.892-0.0697 3.31 1.231 0.8297-2.033 2.6-4.794 5.562-6.929z" fill="#f3ca33" stroke="#000" stroke-width=".4538"/><g stroke-width=".9871"><path d="m316.2 376.1c0.1105 7.674 3.212 13.72 9.384 14.27 5.568-0.5796 8.177-4.707 9.029-11.39 0.3128-1.415 0.091-2.482-0.4058-3.369-6.761 1.058-13.44 0.7332-18.01 0.4955z" fill="#5f4d4d"/><path d="m319.1 386.7c2.893-3.752 9.337-3.384 13.7-1.156-2.159 3.694-4.749 4.482-7.238 4.892-3.646-0.3362-5.171-1.836-6.464-3.736z" fill="#c32729"/><path d="m317.6 373.7c0.2738 0.1722 1.196-0.8168 1.65-0.7357 0.9691 0.1368 1.812 0.082 2.717 3e-5 0.1783 0.049 1.148-0.0504 0.0638-0.2891 0.2535-0.5224-0.4138-2.625-1.812-2.391-0.8666 0.2462-1.335 1.097-1.524 2.312-0.8428 0.3742-1.253 1.017-1.094 1.104z"/><path d="m328.9 373.1c0.3262 0.0444 1.066-0.1466 1.511-0.0437 0.8716 0.146 2.082 0.2772 3.205 0.3583 0.1423 9e-3 1.062 0.1842-0.026-0.3094 0.0627-0.6372-0.9164-3.213-2.047-2.866-0.8927 0.3047-1.673 1.55-1.676 2.349-0.7325 0.132-0.8535 0.2707-1.005 0.348-0.044 0.0541-0.0843 0.1083 0.0373 0.1626z" fill="#080808"/><path d="m321.1 379.9c-1.619-0.8342-1.892-2.305-1.89-3.666 1.623 0.0496 3.162 0.0437 4.785 0.0929-0.155 2.06-1.047 4.031-2.896 3.574z" fill="#fff"/><path d="m327.4 376.3c-0.2092 2.472-1.155 2.415-1.693 2.545-0.9576-0.6589-0.6528-1.33-0.7068-2.474 4e-3 0.02 1.807-0.0375 2.4-0.0714z" fill="#fff"/></g><g transform="matrix(1.388 0 0 1.478 13.61 218.5)" fill="#dadada" aria-label="хорошо жду..."><path d="m76.46 60.74h-2.461l-1.406-1.969-1.441 1.969h-2.414l2.596-3.287-2.555-3.293h2.461l1.383 1.934 1.389-1.934h2.42l-2.561 3.24z"/><path d="m84.35 57.45q0 1.623-0.9492 2.561-0.9434 0.9316-2.654 0.9316-1.711 0-2.66-0.9316-0.9434-0.9375-0.9434-2.561 0-1.635 0.9492-2.566 0.9551-0.9316 2.654-0.9316 1.723 0 2.66 0.9375 0.9434 0.9375 0.9434 2.561zm-2.596 1.6q0.2051-0.252 0.3047-0.6035 0.1055-0.3574 0.1055-0.9844 0-0.5801-0.1055-0.9727t-0.293-0.627q-0.1875-0.2402-0.4512-0.3398t-0.5684-0.09961q-0.3047 0-0.5449 0.08203-0.2344 0.08203-0.4512 0.3281-0.1934 0.2285-0.3105 0.627-0.1113 0.3984-0.1113 1.002 0 0.5391 0.09961 0.9375 0.09961 0.3926 0.293 0.6328 0.1875 0.2285 0.4453 0.334 0.2637 0.1055 0.5977 0.1055 0.2871 0 0.5449-0.09375 0.2637-0.09961 0.4453-0.3281z"/><path d="m92.74 57.35q0 0.8145-0.252 1.482-0.2461 0.668-0.6504 1.102-0.4219 0.457-0.9551 0.6914t-1.143 0.2344q-0.5625 0-0.9551-0.123-0.3926-0.1172-0.8027-0.334v2.742h-2.109v-8.994h2.109v0.6855q0.4863-0.3867 0.9902-0.627 0.5098-0.2402 1.172-0.2402 1.23 0 1.91 0.9023 0.6855 0.9023 0.6855 2.479zm-2.174 0.04102q0-0.9609-0.3281-1.395t-1.037-0.4336q-0.2988 0-0.6152 0.09375-0.3164 0.08789-0.6035 0.2578v3.311q0.2109 0.08203 0.4512 0.1055 0.2402 0.02344 0.4746 0.02344 0.8379 0 1.248-0.4863 0.4102-0.4922 0.4102-1.477z"/><path d="m101 57.45q0 1.623-0.9492 2.561-0.9434 0.9316-2.654 0.9316-1.711 0-2.66-0.9316-0.9434-0.9375-0.9434-2.561 0-1.635 0.9492-2.566 0.9551-0.9316 2.654-0.9316 1.723 0 2.66 0.9375 0.9434 0.9375 0.9434 2.561zm-2.596 1.6q0.2051-0.252 0.3047-0.6035 0.1055-0.3574 0.1055-0.9844 0-0.5801-0.1055-0.9727t-0.293-0.627q-0.1875-0.2402-0.4512-0.3398t-0.5684-0.09961q-0.3047 0-0.5449 0.08203-0.2344 0.08203-0.4512 0.3281-0.1934 0.2285-0.3105 0.627-0.1113 0.3984-0.1113 1.002 0 0.5391 0.09961 0.9375 0.09961 0.3926 0.293 0.6328 0.1875 0.2285 0.4453 0.334 0.2637 0.1055 0.5977 0.1055 0.2871 0 0.5449-0.09375 0.2637-0.09961 0.4453-0.3281z"/><path d="m112.6 60.74h-10.04v-6.58h2.104v5.133h1.863v-5.133h2.104v5.133h1.863v-5.133h2.104z"/><path d="m121.3 57.45q0 1.623-0.9492 2.561-0.9434 0.9316-2.654 0.9316t-2.66-0.9316q-0.9434-0.9375-0.9434-2.561 0-1.635 0.9492-2.566 0.9551-0.9316 2.654-0.9316 1.723 0 2.66 0.9375 0.9434 0.9375 0.9434 2.561zm-2.596 1.6q0.2051-0.252 0.3047-0.6035 0.1055-0.3574 0.1055-0.9844 0-0.5801-0.1055-0.9727t-0.293-0.627q-0.1875-0.2402-0.4512-0.3398t-0.5684-0.09961-0.5449 0.08203q-0.2344 0.08203-0.4512 0.3281-0.1934 0.2285-0.3106 0.627-0.1113 0.3984-0.1113 1.002 0 0.5391 0.0996 0.9375 0.0996 0.3926 0.293 0.6328 0.1875 0.2285 0.4453 0.334 0.2637 0.1055 0.5977 0.1055 0.2871 0 0.5449-0.09375 0.2637-0.09961 0.4453-0.3281z"/><path d="m137.6 60.74h-2.426l-1.658-2.607h-0.5977v2.607h-2.098v-2.607h-0.5976l-1.658 2.607h-2.426l2.268-3.387q-0.1641-0.123-0.2637-0.2695t-0.2402-0.4688q-0.1758-0.3926-0.3867-0.5449t-0.5332-0.1523h-0.5742v-1.758q0.0996 0 0.3281-0.0059 0.2344-0.0059 0.4805-0.0059 0.8144 0 1.225 0.293 0.416 0.293 0.7266 0.8379 0.0703 0.1289 0.1875 0.3633 0.123 0.2344 0.2168 0.3984 0.3105 0.5391 0.5156 0.6504t0.7324 0.1113v-2.643h2.098v2.643q0.5801-0.0059 0.7676-0.1289 0.1934-0.123 0.4805-0.6328 0.0879-0.1523 0.2109-0.3926 0.123-0.2402 0.1934-0.3691 0.2637-0.498 0.6973-0.8145 0.4336-0.3164 1.254-0.3164 0.2226 0 0.4688 0.0059 0.252 0.0059 0.3398 0.0059v1.758h-0.5742q-0.3281 0-0.5449 0.1641-0.2109 0.1582-0.375 0.5332-0.1289 0.2871-0.2344 0.457-0.1055 0.1641-0.2695 0.2812z"/><path d="m145.8 62.36h-1.881v-1.652h-3.879v1.652h-1.881v-3.1h0.5449q0.4453-0.9258 0.709-2.262 0.2695-1.342 0.2695-2.848h5.438v5.109h0.6797zm-2.777-3.1v-3.639h-1.447q-0.0996 1.084-0.3398 2.016-0.2344 0.9316-0.5684 1.623z"/><path d="m150.2 58.41 1.5-4.254h2.168l-3.656 8.994h-2.285l1.043-2.461-2.561-6.533h2.215z"/><path d="m157.3 60.74h-2.191v-2.303h2.191z"/><path d="m161.6 60.74h-2.191v-2.303h2.191z"/><path d="m165.9 60.74h-2.191v-2.303h2.191z"/></g><g transform="matrix(1.388 0 0 1.478 27.11 297.1)" fill="#dadada" aria-label="кидай приглос"><path d="m76.57 60.74h-2.438l-1.764-2.607h-0.6738v2.607h-2.109v-6.58h2.109v2.643q0.5859-0.0059 0.8086-0.123 0.2227-0.123 0.5156-0.6387 0.08789-0.1523 0.2109-0.3926 0.123-0.2402 0.1934-0.3691 0.3223-0.5742 0.75-0.8496 0.4336-0.2812 1.201-0.2812 0.2227 0 0.4688 0.0059 0.252 0.0059 0.3398 0.0059v1.758h-0.5742q-0.3516 0-0.5625 0.1758-0.2051 0.1758-0.3574 0.5215-0.1289 0.2871-0.2344 0.457-0.1055 0.1641-0.2695 0.2812z"/><path d="m84.3 60.74h-2.045v-4.025l-2.859 4.025h-1.746v-6.58h2.045v3.604l2.648-3.604h1.957z"/><path d="m93.16 62.36h-1.881v-1.652h-3.879v1.652h-1.881v-3.1h0.5449q0.4453-0.9258 0.709-2.262 0.2695-1.342 0.2695-2.848h5.438v5.109h0.6797zm-2.777-3.1v-3.639h-1.447q-0.09961 1.084-0.3398 2.016-0.2344 0.9316-0.5684 1.623z"/><path d="m98.58 59.02v-1.371q-0.4277 0.03516-0.9258 0.09961-0.498 0.05859-0.7559 0.1406-0.3164 0.09961-0.4863 0.293-0.1641 0.1875-0.1641 0.498 0 0.2051 0.03516 0.334t0.1758 0.2461q0.1348 0.1172 0.3223 0.1758 0.1875 0.05273 0.5859 0.05273 0.3164 0 0.6387-0.1289 0.3281-0.1289 0.5742-0.3398zm0 1.02q-0.1699 0.1289-0.4219 0.3105t-0.4746 0.2871q-0.3105 0.1406-0.6445 0.2051-0.334 0.07031-0.7324 0.07031-0.9375 0-1.57-0.5801-0.6328-0.5801-0.6328-1.482 0-0.7207 0.3223-1.178t0.9141-0.7207q0.5859-0.2637 1.453-0.375 0.8672-0.1113 1.799-0.1641v-0.03516q0-0.5449-0.4453-0.75-0.4453-0.2109-1.312-0.2109-0.5215 0-1.113 0.1875-0.5918 0.1816-0.8496 0.2812h-0.1934v-1.588q0.334-0.08789 1.084-0.2051 0.7559-0.123 1.512-0.123 1.799 0 2.596 0.5566 0.8027 0.5508 0.8027 1.734v4.477h-2.092z"/><path d="m109.3 60.74h-2.045v-4.025l-2.859 4.025h-1.746v-6.58h2.045v3.604l2.648-3.604h1.957zm-0.7266-9.498q0 0.9551-0.6562 1.559-0.6504 0.6035-1.934 0.6035-1.277 0-1.934-0.6035-0.6562-0.6094-0.6562-1.559h1.629q0.0117 0.5801 0.2227 0.8672 0.2109 0.2812 0.7383 0.2812 0.5332 0 0.7383-0.2754 0.2109-0.2812 0.2227-0.873z"/><path d="m122 60.74h-2.109v-5.15h-2.426v5.15h-2.109v-6.58h6.645z"/><path d="m130.9 57.35q0 0.8145-0.252 1.482-0.2461 0.668-0.6504 1.102-0.4219 0.457-0.9551 0.6914t-1.143 0.2344q-0.5625 0-0.9551-0.123-0.3926-0.1172-0.8027-0.334v2.742h-2.109v-8.994h2.109v0.6855q0.4863-0.3867 0.9902-0.627 0.5098-0.2402 1.172-0.2402 1.23 0 1.91 0.9023 0.6856 0.9023 0.6856 2.479zm-2.174 0.04102q0-0.9609-0.3281-1.395-0.3281-0.4336-1.037-0.4336-0.2988 0-0.6152 0.09375-0.3164 0.08789-0.6035 0.2578v3.311q0.2109 0.08203 0.4512 0.1055 0.2402 0.02344 0.4746 0.02344 0.8379 0 1.248-0.4863 0.4102-0.4922 0.4102-1.477z"/><path d="m139 60.74h-2.045v-4.025l-2.859 4.025h-1.746v-6.58h2.045v3.604l2.648-3.604h1.957z"/><path d="m146.4 55.62h-3.211v5.115h-2.109v-6.58h5.32z"/><path d="m153.9 60.74h-2.109v-5.109h-1.74q-0.0176 0.4395-0.0293 0.6855-6e-3 0.2402-0.0176 0.5625-0.041 0.9434-0.1582 1.535-0.1172 0.5918-0.2988 0.9668-0.1758 0.3809-0.3809 0.6035-0.1992 0.2227-0.4043 0.3867-0.2344 0.1875-0.6152 0.2988-0.375 0.1113-0.7266 0.1113-0.2754 0-0.5566-0.02344-0.2812-0.01758-0.334-0.01758v-1.688h0.0644q0.0234 0 0.082 0.0059t0.1172 0.0059q0.1523 0 0.3105-0.0293 0.1641-0.0293 0.2695-0.1289 0.3926-0.375 0.5215-0.9375 0.1348-0.5684 0.1934-1.676 0.0234-0.4102 0.0469-0.9375 0.0234-0.5273 0.041-1.195h5.725z"/><path d="m162.7 57.45q0 1.623-0.9492 2.561-0.9434 0.9316-2.654 0.9316-1.711 0-2.66-0.9316-0.9434-0.9375-0.9434-2.561 0-1.635 0.9492-2.566 0.9551-0.9316 2.654-0.9316 1.723 0 2.66 0.9375 0.9434 0.9375 0.9434 2.561zm-2.596 1.6q0.2051-0.252 0.3047-0.6035 0.1055-0.3574 0.1055-0.9844 0-0.5801-0.1055-0.9727t-0.293-0.627q-0.1875-0.2402-0.4512-0.3398-0.2637-0.09961-0.5684-0.09961t-0.5449 0.08203q-0.2344 0.08203-0.4512 0.3281-0.1934 0.2285-0.3106 0.627-0.1113 0.3984-0.1113 1.002 0 0.5391 0.0996 0.9375 0.0996 0.3926 0.293 0.6328 0.1875 0.2285 0.4453 0.334 0.2637 0.1055 0.5976 0.1055 0.2871 0 0.5449-0.09375 0.2637-0.09961 0.4453-0.3281z"/><path d="m167.6 60.91q-0.8613 0-1.576-0.2051-0.709-0.2051-1.236-0.6328-0.5215-0.4277-0.8086-1.078-0.2871-0.6504-0.2871-1.523 0-0.9199 0.3047-1.588 0.3105-0.668 0.8613-1.107 0.5332-0.416 1.23-0.6094 0.6973-0.1934 1.447-0.1934 0.6738 0 1.242 0.1465 0.5684 0.1465 1.061 0.3809v1.799h-0.2988q-0.123-0.1055-0.2988-0.2461-0.1699-0.1406-0.4219-0.2754-0.2402-0.1289-0.5273-0.2109-0.2871-0.08789-0.668-0.08789-0.8438 0-1.301 0.5391-0.4512 0.5332-0.4512 1.453 0 0.9492 0.4629 1.441 0.4688 0.4922 1.324 0.4922 0.3984 0 0.7148-0.08789 0.3223-0.09375 0.5332-0.2168 0.1992-0.1172 0.3516-0.2461t0.2812-0.252h0.2988v1.799q-0.498 0.2344-1.043 0.3691-0.5391 0.1406-1.195 0.1406z"/></g><path d="m78.03 442.2 108.2-0.062 0.1842 116.1-108.4-0.1859c-2.085-3e-3 -3.763-1.393-3.763-3.123v-109.7c0-1.73 1.678-3.122 3.763-3.123z" fill="url(#radialGradient5021)" stroke-width=".9871" style="paint-order:fill markers stroke"/><rect x="226.1" y="519" width="136.2" height="24.89" rx="3.763" ry="3.123" fill="#8ce47a" fill-rule="evenodd" stroke-width="1.748"/><path d="m289.5 525.4v13.78l10.36-5.449c1.609-1.021 1.212-1.831 0-2.557z" fill="#fff" stroke-width=".9871"/><g transform="matrix(1.043 0 0 1.078 141.2 400.8)" fill="#dadada" aria-label="Вас пригласили в игру"><path d="m77.17 58.06q0 0.6328-0.2578 1.131-0.252 0.498-0.6973 0.8262-0.5156 0.3867-1.137 0.5508-0.6152 0.1641-1.564 0.1641h-3.809v-8.725h3.387q1.055 0 1.541 0.07031 0.4922 0.07031 0.9727 0.3105 0.498 0.252 0.7383 0.6797 0.2461 0.4219 0.2461 0.9668 0 0.6328-0.334 1.119-0.334 0.4805-0.9434 0.75v0.04687q0.8555 0.1699 1.354 0.7031 0.5039 0.5332 0.5039 1.406zm-2.883-3.586q0-0.2168-0.1113-0.4336-0.1055-0.2168-0.3809-0.3223-0.2461-0.09375-0.6152-0.09961-0.3633-0.01172-1.025-0.01172h-0.2109v1.846h0.3516q0.5332 0 0.9082-0.01758t0.5918-0.1172q0.3047-0.1348 0.3984-0.3457 0.09375-0.2168 0.09375-0.498zm0.5508 3.551q0-0.416-0.1641-0.6387-0.1582-0.2285-0.5449-0.3398-0.2637-0.07617-0.7266-0.08203-0.4629-0.0059-0.9668-0.0059h-0.4922v2.174h0.1641q0.9492 0 1.359-0.0059 0.4102-0.0059 0.7559-0.1523 0.3516-0.1465 0.4805-0.3867 0.1348-0.2461 0.1348-0.5625z"/><path d="m82.71 59.02v-1.371q-0.4277 0.03516-0.9258 0.09961-0.498 0.05859-0.7559 0.1406-0.3164 0.09961-0.4863 0.293-0.1641 0.1875-0.1641 0.498 0 0.2051 0.03516 0.334t0.1758 0.2461q0.1348 0.1172 0.3223 0.1758 0.1875 0.05273 0.5859 0.05273 0.3164 0 0.6387-0.1289 0.3281-0.1289 0.5742-0.3398zm0 1.02q-0.1699 0.1289-0.4219 0.3105t-0.4746 0.2871q-0.3105 0.1406-0.6445 0.2051-0.334 0.07031-0.7324 0.07031-0.9375 0-1.57-0.5801-0.6328-0.5801-0.6328-1.482 0-0.7207 0.3223-1.178 0.3223-0.457 0.9141-0.7207 0.5859-0.2637 1.453-0.375 0.8672-0.1113 1.799-0.1641v-0.03516q0-0.5449-0.4453-0.75-0.4453-0.2109-1.312-0.2109-0.5215 0-1.113 0.1875-0.5918 0.1816-0.8496 0.2812h-0.1934v-1.588q0.334-0.08789 1.084-0.2051 0.7559-0.123 1.512-0.123 1.799 0 2.596 0.5566 0.8027 0.5508 0.8027 1.734v4.477h-2.092z"/><path d="m90.17 60.91q-0.8613 0-1.576-0.2051-0.709-0.2051-1.236-0.6328-0.5215-0.4277-0.8086-1.078-0.2871-0.6504-0.2871-1.523 0-0.9199 0.3047-1.588 0.3105-0.668 0.8613-1.107 0.5332-0.416 1.23-0.6094 0.6973-0.1934 1.447-0.1934 0.6738 0 1.242 0.1465 0.5684 0.1465 1.061 0.3809v1.799h-0.2988q-0.123-0.1055-0.2988-0.2461-0.1699-0.1406-0.4219-0.2754-0.2402-0.1289-0.5273-0.2109-0.2871-0.08789-0.668-0.08789-0.8438 0-1.301 0.5391-0.4512 0.5332-0.4512 1.453 0 0.9492 0.4629 1.441 0.4688 0.4922 1.324 0.4922 0.3984 0 0.7148-0.08789 0.3223-0.09375 0.5332-0.2168 0.1992-0.1172 0.3516-0.2461t0.2812-0.252h0.2988v1.799q-0.498 0.2344-1.043 0.3691-0.5391 0.1406-1.195 0.1406z"/><path d="m104.7 60.74h-2.109v-5.15h-2.426v5.15h-2.109v-6.58h6.645z"/><path d="m113.5 57.35q0 0.8145-0.252 1.482-0.2461 0.668-0.6504 1.102-0.4219 0.457-0.9551 0.6914t-1.143 0.2344q-0.5625 0-0.9551-0.123-0.3926-0.1172-0.8027-0.334v2.742h-2.109v-8.994h2.109v0.6855q0.4863-0.3867 0.9902-0.627 0.5098-0.2402 1.172-0.2402 1.23 0 1.91 0.9023 0.6856 0.9023 0.6856 2.479zm-2.174 0.04102q0-0.9609-0.3281-1.395-0.3281-0.4336-1.037-0.4336-0.2988 0-0.6152 0.09375-0.3164 0.08789-0.6035 0.2578v3.311q0.2109 0.08203 0.4512 0.1055 0.2402 0.02344 0.4746 0.02344 0.8379 0 1.248-0.4863 0.4102-0.4922 0.4102-1.477z"/><path d="m121.7 60.74h-2.045v-4.025l-2.859 4.025h-1.746v-6.58h2.045v3.604l2.648-3.604h1.957z"/><path d="m129 55.62h-3.211v5.115h-2.109v-6.58h5.32z"/><path d="m136.6 60.74h-2.109v-5.109h-1.74q-0.0176 0.4395-0.0293 0.6855-6e-3 0.2402-0.0176 0.5625-0.041 0.9434-0.1582 1.535-0.1172 0.5918-0.2988 0.9668-0.1758 0.3809-0.3809 0.6035-0.1992 0.2227-0.4043 0.3867-0.2344 0.1875-0.6152 0.2988-0.375 0.1113-0.7266 0.1113-0.2754 0-0.5566-0.02344-0.2812-0.01758-0.334-0.01758v-1.688h0.0644q0.0234 0 0.082 0.0059t0.1172 0.0059q0.1523 0 0.3105-0.0293 0.1641-0.0293 0.2695-0.1289 0.3926-0.375 0.5215-0.9375 0.1348-0.5684 0.1934-1.676 0.0234-0.4102 0.0469-0.9375 0.0234-0.5273 0.041-1.195h5.725z"/><path d="m142.6 59.02v-1.371q-0.4277 0.03516-0.9258 0.09961-0.498 0.05859-0.7559 0.1406-0.3164 0.09961-0.4863 0.293-0.1641 0.1875-0.1641 0.498 0 0.2051 0.0352 0.334t0.1758 0.2461q0.1348 0.1172 0.3223 0.1758 0.1875 0.05273 0.5859 0.05273 0.3164 0 0.6387-0.1289 0.3281-0.1289 0.5742-0.3398zm0 1.02q-0.1699 0.1289-0.4219 0.3105t-0.4746 0.2871q-0.3106 0.1406-0.6445 0.2051-0.334 0.07031-0.7324 0.07031-0.9375 0-1.57-0.5801t-0.6328-1.482q0-0.7207 0.3223-1.178 0.3223-0.457 0.9141-0.7207 0.5859-0.2637 1.453-0.375 0.8672-0.1113 1.799-0.1641v-0.03516q0-0.5449-0.4453-0.75-0.4453-0.2109-1.312-0.2109-0.5215 0-1.113 0.1875-0.5918 0.1816-0.8496 0.2812h-0.1934v-1.588q0.334-0.08789 1.084-0.2051 0.7559-0.123 1.512-0.123 1.799 0 2.596 0.5566 0.8027 0.5508 0.8027 1.734v4.477h-2.092z"/><path d="m150 60.91q-0.8613 0-1.576-0.2051-0.709-0.2051-1.236-0.6328-0.5215-0.4277-0.8086-1.078-0.2871-0.6504-0.2871-1.523 0-0.9199 0.3047-1.588 0.3106-0.668 0.8613-1.107 0.5332-0.416 1.23-0.6094 0.6973-0.1934 1.447-0.1934 0.6738 0 1.242 0.1465 0.5684 0.1465 1.061 0.3809v1.799h-0.2988q-0.123-0.1055-0.2988-0.2461-0.1699-0.1406-0.4219-0.2754-0.2402-0.1289-0.5274-0.2109-0.2871-0.08789-0.668-0.08789-0.8438 0-1.301 0.5391-0.4512 0.5332-0.4512 1.453 0 0.9492 0.4629 1.441 0.4688 0.4922 1.324 0.4922 0.3984 0 0.7148-0.08789 0.3223-0.09375 0.5332-0.2168 0.1992-0.1172 0.3516-0.2461t0.2812-0.252h0.2988v1.799q-0.498 0.2344-1.043 0.3691-0.5391 0.1406-1.195 0.1406z"/><path d="m160.4 60.74h-2.045v-4.025l-2.859 4.025h-1.746v-6.58h2.045v3.604l2.648-3.604h1.957z"/><path d="m168.9 60.74h-2.109v-5.109h-1.74q-0.0176 0.4395-0.0293 0.6855-6e-3 0.2402-0.0176 0.5625-0.041 0.9434-0.1582 1.535-0.1172 0.5918-0.2988 0.9668-0.1758 0.3809-0.3809 0.6035-0.1992 0.2227-0.4043 0.3867-0.2344 0.1875-0.6152 0.2988-0.375 0.1113-0.7266 0.1113-0.2754 0-0.5566-0.02344-0.2812-0.01758-0.334-0.01758v-1.688h0.0644q0.0234 0 0.082 0.0059t0.1172 0.0059q0.1523 0 0.3105-0.0293 0.1641-0.0293 0.2695-0.1289 0.3926-0.375 0.5215-0.9375 0.1348-0.5684 0.1934-1.676 0.0234-0.4102 0.0469-0.9375 0.0234-0.5273 0.041-1.195h5.725z"/><path d="m177.6 60.74h-2.045v-4.025l-2.859 4.025h-1.746v-6.58h2.045v3.604l2.648-3.604h1.957z"/><path d="m190.3 58.75q0 0.4746-0.1934 0.8438-0.1875 0.3691-0.5039 0.6152-0.3984 0.3105-0.8438 0.4219-0.4395 0.1055-1.049 0.1055h-4.008v-6.58h3.838q0.7207 0 1.061 0.04687 0.3398 0.04687 0.668 0.2285 0.3457 0.1875 0.5156 0.498 0.1758 0.3105 0.1758 0.7383 0 0.4863-0.2812 0.8555-0.2754 0.3633-0.668 0.5566v0.06445q0.5449 0.1348 0.9141 0.5449 0.375 0.4043 0.375 1.061zm-2.467-2.613q0-0.3633-0.2227-0.5156-0.2168-0.1523-0.7031-0.1523h-1.113v1.312h1.148q0.4277 0 0.6562-0.1699 0.2344-0.1758 0.2344-0.4746zm0.293 2.549q0-0.4277-0.2461-0.5977-0.2402-0.1758-0.7148-0.1758h-1.371v1.506h1.406q0.4336 0 0.6797-0.1934 0.2461-0.1992 0.2461-0.5391z"/><path d="m202.6 60.74h-2.045v-4.025l-2.859 4.025h-1.746v-6.58h2.045v3.604l2.648-3.604h1.957z"/><path d="m209.9 55.62h-3.211v5.115h-2.109v-6.58h5.32z"/><path d="m217.8 57.35q0 0.8145-0.252 1.482-0.2461 0.668-0.6504 1.102-0.4219 0.457-0.9551 0.6914t-1.143 0.2344q-0.5625 0-0.9551-0.123-0.3926-0.1172-0.8027-0.334v2.742h-2.109v-8.994h2.109v0.6855q0.4863-0.3867 0.9902-0.627 0.5098-0.2402 1.172-0.2402 1.23 0 1.91 0.9023 0.6856 0.9023 0.6856 2.479zm-2.174 0.04102q0-0.9609-0.3281-1.395-0.3281-0.4336-1.037-0.4336-0.2988 0-0.6152 0.09375-0.3164 0.08789-0.6035 0.2578v3.311q0.2109 0.08203 0.4512 0.1055 0.2402 0.02344 0.4746 0.02344 0.8379 0 1.248-0.4863 0.4102-0.4922 0.4102-1.477z"/><path d="m222.3 58.41 1.5-4.254h2.168l-3.656 8.994h-2.285l1.043-2.461-2.561-6.533h2.215z"/></g><rect x="220.1" y="478.1" width="150.2" height="9.226" rx="1.821" ry="1.611" fill="#577190" stroke-width=".9871" style="paint-order:fill markers stroke"/><rect x="220.1" y="490" width="75.19" height="9.226" rx="1.821" ry="1.611" fill="#577190" stroke-width=".9871" style="paint-order:fill markers stroke"/><g id="OBJECTS" transform="matrix(1.092 0 0 1.205 1137 379.6)"><clipPath><use width="100%" height="100%" overflow="visible" xlink:href="#SVGID_00000003074585205086541970000015166988372166584508_"/></clipPath><g transform="matrix(1.085 0 0 1 152.4 3.042)" clip-path="url(#SVGID_00000139973966577205660310000005827510562216689816_-0)"><clipPath><use width="100%" height="100%" overflow="visible" xlink:href="#SVGID_00000049944472060191588790000008138092306275063191_"/></clipPath><clipPath id="SVGID_00000158749058537932723720000010132616993628840375_"><use width="100%" height="100%" overflow="visible" xlink:href="#SVGID_00000109007228282674387750000013305954661919764894_"/></clipPath><polygon points="" fill="#6dff8e"/></g></g><g transform="matrix(.9063 0 0 .9124 503.8 834.1)"><polygon transform="matrix(1.185 0 0 1.205 288.9 -808.5)" points="322 419.5 354 454.5 88 454.5 124.5 419.5" fill="#8376ca"/><polygon transform="matrix(1.185 0 0 1.205 288.9 -808.5)" points="342.2 449.7 98.5 449.7 126.9 422.4 319.4 422.4" fill="#20acde"/><path d="m701.2-245.4h-300.6c-4.149 0-7.35-3.373-7.35-7.468v-8.07h315.3v8.07c0 4.095-3.319 7.468-7.35 7.468z" fill="#536670" stroke-width="1.195"/><rect transform="scale(-1,1)" x="-335.7" y="-726.8" width="22.4" height="22.77" fill="url(#linearGradient199746-6)" stroke-width="1.195"/><rect transform="scale(-1,1)" x="-374.3" y="-665.4" width="22.4" height="22.77" fill="url(#SVGID_00000033337568043871148290000014404713287555979927_-3-6)" stroke-width="1.195"/><g transform="matrix(1 0 0 1.087 0 -1.354)"><path d="m404.6-370.9-2.802 41.92c12.5-2.838 19.55-11.3 19.81-21.41 0.232-9.189-8.553-19.17-17-20.51z" fill="none"/><g stroke-width="1.195"><path d="m574.1-324.9s4.623-1.325 5.927 0 12.57 21.32 12.57 21.32-35.92 41.2-36.87 42.16c-1.067 1.084-24.06-5.18-23.83-6.264 0.2371-1.084 2.608-6.745 2.608-6.745l4.86-1.566 17.66-48.18z" fill="#3a358d"/><path d="m565.8-490.2s-38.29 29.99-47.18 59.75l44.1 116.6s9.958 1.084 13.51-10.12l-9.72-58.42s14.22-29.75-7.35-44.93c0 0 63.66-34.33 83.81-60.23z" fill="#4058e5"/><path d="m531.4-396.8 8.061 21.2c7.231-0.8432 17.19-2.65 27.26-6.625v-0.1205s7.35-15.54 3.438-29.75c-0.1185 0-5.927 16.98-38.76 15.3z" fill="#5bb18b"/></g><g fill="#2e49d3"><path transform="matrix(1.185 0 0 1.205 288.9 -784.4)" d="m252.9 385.4s-19.8 9.1-6.1 29.8l18-11.7z" clip-path="url(#SVGID_00000090283932855603927710000000325768768293782952_-5-9)"/><polygon transform="matrix(1.185 0 0 1.205 288.9 -784.4)" points="230.1 398.4 219.3 395.1 217.9 401.5 228.2 404.7"/><polygon transform="matrix(1.185 0 0 1.205 288.9 -784.4)" points="227.5 408 216.7 404.7 215.2 411.1 225.6 414.3"/></g><g stroke-width="1.195"><path d="m605.4-455.5c3.082-2.891 6.164-5.541 9.365-8.191l9.483-7.83c1.66-1.325 3.201-2.53 4.742-3.855s3.082-2.65 4.742-3.975c3.082-2.65 6.164-5.42 9.246-8.191-2.015 3.614-4.742 6.986-7.587 9.998-2.845 3.011-5.927 5.782-9.128 8.432s-6.52 5.059-10.08 7.348c-3.438 2.409-6.994 4.457-10.79 6.264z" fill="#5bb18b"/><path d="m728.5-739.3-4.623 6.384v9.877l1.659 0.4818 6.994-13.13c8.535-2.65 8.89-9.275 8.89-9.275z" fill="#c89350"/><path d="m515.6-667.7-13.51-4.216-2.964 17.1-3.912 3.373-2.134-8.673c-1.778-7.468-0.3556-15.42 4.03-21.68 11.97-17.23 31.18-27.95 51.92-28.79 23.47-0.9636 54.05 3.614 78.59 27.46 46.35 45.17-14.34 95.52-14.34 95.52l-38.29-3.975-27.86-25.18z" fill="#54af68"/><path d="m515.6-667.7-13.51-4.216-2.964 17.1-3.912 3.373-2.134-8.673c-1.778-7.468-0.3556-15.42 4.03-21.68 11.97-17.23 31.18-27.95 51.92-28.79 23.47-0.9636 54.05 3.614 78.59 27.46 46.35 45.17-14.34 95.52-14.34 95.52l-38.29-3.975-27.86-25.18z" fill="#00909d"/><path d="m627.6-683.3c-24.42-23.85-55.12-28.43-78.59-27.46-20.74 0.8432-39.95 11.56-51.92 28.79-1.304 4.939-1.422 9.998-0.2371 15.78 0.4742 2.409 1.304 5.782 2.608 9.155l2.608-14.94 13.51 4.216 10.79 17.59c2.964-3.373 4.504 3.493 6.164-1.084 2.726-7.95 12.09-23.25 18.73-28.19 12.45-9.155 22.76-12.77 36.75-5.059 12.8 6.986 26.91 26.26 26.08 41.32-0.3556 7.83-1.422 15.06-5.334 21.92-3.675 6.505-10.55 12.05-13.28 19.03-1.897 4.818-0.8296 9.636 2.252 13.13l15.41 1.566c0.1187-0.1205 60.81-50.59 14.46-95.76z" fill="#5bb18b"/><path d="m627.6-683.3c-21.34-20.84-47.42-26.98-69.23-27.58 18.49 2.53 38.53 9.877 55.6 26.38 44.45 43.24-9.602 91.43-13.99 95.28l13.4 1.325c-0.1185 0.2409 60.57-50.23 14.22-95.4z" fill="#cbea9c"/><path d="m521.6-617-70.06 11.56v19.75l70.06-4.818 17.78 35.17 47.42 29.15 59.98-17.59v-10.84l-12.92-3.734-36.39-54.93 60.69-47.7s2.608-13.13-11.38-20.24l-70.53 36.26z" fill="#210d99"/><g fill="#4ac28d"><path d="m488.9-599.4c0.7112 3.614 1.422 7.348 2.015 10.96l14.58-0.9636c0-8.191-1.778-16.38-4.268-24.21l-15.53 2.53c0.9483 3.855 2.489 7.95 3.201 11.68z"/><path d="m470-593.6c-0.1185-3.734-0.1185-9.395-0.9483-14.82l-17.54 2.891v19.88l18.73-1.325c0-2.168-0.1186-4.336-0.2371-6.625z"/><path d="m588.9-651.6c3.201 6.505 7.942 13.01 10.67 18.55 2.134 4.216 4.03 8.793 6.164 13.25l11.14-8.793c-4.03-10.24-9.128-20.36-13.63-30.35z"/><path d="m646.8-681.3-18.02 9.275c4.623 8.07 7.231 17.1 11.26 25.3l18.26-14.33c-0.1186 0 2.489-13.13-11.5-20.24z"/></g><path d="m552.3-642.8 6.875 5.661 17.07-7.95s0 33.85-23.95 49.03c0 0-20.63-2.409-30.7-20.96-10.08-18.55 0 0 0 0l26.32-28.07 4.386 2.289" fill="#c34d99"/><path d="m552.3-642.8 6.875 5.661 17.07-7.95s0 33.85-23.95 49.03c0 0-20.63-2.409-30.7-20.96-10.08-18.55 0 0 0 0l26.32-28.07 4.386 2.289" fill="#e3a65c"/><path d="m534.6-625-1.067 1.325c2.964 2.168 5.809 4.698 8.061 7.709s3.912 6.505 4.268 10.36c0-3.855-1.422-7.589-3.556-10.84-2.015-3.252-4.742-6.023-7.705-8.552z" fill="#d08020"/><path d="m559.2-637.1-6.875-5.661-4.386-2.289-25.6 27.34c3.556 2.77 13.75-2.289 17.19-3.855 5.808-2.65 11.26-6.264 16-10.48 2.015-1.807 4.03-3.855 5.808-5.902z" fill="#cf9243"/><path d="m559.2-653.1c-1.186-9.877-10.31-7.83-10.31-7.83s-9.483 11.2-8.535 3.373c1.067-7.83-1.778-21.8-1.778-21.8l-23 11.8-13.28-4.577c-0.1186 0.1205-0.1186 0.2409-0.1186 0.2409s-12.92 37.22 14.94 56.61c0 0 16-4.818 28.69-15.18l3.082-11.8c-0.1185 0 11.74 0.3614 10.31-10.84z" fill="#c34d99"/></g><path d="m559.2-653.1c-1.186-9.877-10.31-7.83-10.31-7.83s-9.483 11.2-8.535 3.373c1.067-7.83-1.778-21.8-1.778-21.8l-23 11.8-13.28-4.577c-0.1186 0.1205-0.1186 0.2409-0.1186 0.2409s-12.92 37.22 14.94 56.61c0 0 16-4.818 28.69-15.18l3.082-11.8c-0.1185 0 11.74 0.3614 10.31-10.84z" fill="#e3a65c" stroke-width="1.195"/><g transform="matrix(1.185 0 0 1.205 288.9 -784.4)" fill="#e2bd8e" opacity=".64"><path d="m191.5 139.7c-1.1-1.7-2.5-3.4-3.3-5.2-2.8-6-4.7-12.5-5.5-19-0.5-3.9-0.2-8.1-0.2-12 0-2.9 0.5-5.8 0.9-8.6 0-0.2 0-0.3 0.1-0.5l-3.5-1.2c-0.1 0.1-0.1 0.2-0.1 0.2s-10.6 30.1 11.6 46.3z" fill="#e2bd8e"/></g><polygon transform="matrix(1.185 0 0 1.205 288.9 -784.4)" points="213.3 111.3 225.9 103.4 178.5 120 213.3 122.3" fill="#42385d"/><path d="m517-615.3c2.489-0.9636 5.097-2.048 7.468-3.132 2.489-1.205 4.86-2.289 7.231-3.614s4.623-2.77 6.994-4.216c2.252-1.445 4.386-3.132 6.52-4.818l-0.237 0.3614c0.9483-3.975 2.015-7.83 3.082-11.8l0.1186-0.6023h0.5927c2.489 0 5.097-0.6023 7.112-2.168 0.9483-0.7227 1.778-1.686 2.252-2.891 0.4742-1.205 0.7112-2.409 0.7112-3.734 0-2.53-0.5927-5.3-2.489-7.107-1.897-1.807-4.742-2.409-7.35-2.048 2.608-0.6023 5.572-0.2409 7.705 1.566 1.067 0.8432 1.897 2.168 2.371 3.493 0.1185 0.3614 0.237 0.7227 0.3555 0.9636l0.2372 1.084c0.237 0.7227 0.237 1.445 0.237 2.048 0.1186 1.445-0.1185 2.891-0.5926 4.216-0.4742 1.325-1.422 2.53-2.608 3.493-1.067 0.9636-2.489 1.566-3.793 1.927-1.304 0.3614-2.726 0.6023-4.149 0.6023l0.7112-0.6023c-0.9483 3.975-2.015 7.83-3.082 11.8l-0.1186 0.2409-0.2371 0.1204c-2.134 1.686-4.386 3.373-6.757 4.698-2.371 1.445-4.742 2.77-7.231 3.975s-4.979 2.289-7.468 3.252c-2.371 1.325-4.86 2.168-7.587 2.891z" fill="#2c11ca" stroke-width="1.195"/><polygon transform="matrix(1.185 0 0 1.205 288.9 -784.4)" points="210.9 126.5 210.9 121.5 191.3 129.5 194.6 131.1 193.8 134.4" fill="#3b0d56"/><polygon transform="matrix(1.185 0 0 1.205 288.9 -784.4)" points="208.9 122.3 207.2 125.7 210.9 126.5 193.8 134.4 197 130 193.8 128.5" fill="#fff"/><g stroke-width="1.195"><path d="m556.2-654.9s-8.061-0.7227-7.231 9.155c0 0 1.422-5.661 7.231-4.577 0 0-2.726-2.409-5.809 0-0.1185 0 1.067-3.252 5.809-4.577z" fill="#3b0d56"/><path d="m646.8-681.3c1.347 2.817 16.85-6.893 36.75-16.38l32.01-17.95 9.958-29.87 10.67-9.395s1.541 6.505-5.808 11.56l-4.86 25.18 4.86 7.348s12.09-8.191 14.58 0l-16.24 9.636h-14.22l-56.31 40.11z" fill="#e3a65c"/><path d="m451.5-605.4c0.532 1.96-16.59 3.274-35.14 2.243l-37.64-0.5566s-18.73-12.53-26.79-37.58c0 0-3.675 1.084-3.319 7.468s11.38 30.11 11.38 30.11l-1.067 4.698s-15.17 4.818-10.31 13.49c0 0 9.957-7.107 17.31-7.468 7.35-0.3614 85.71 7.468 85.71 7.468v-19.88z" fill="#e3a65c"/><path d="m345.7-630.3s-2.608 4.216 0 7.83 12.92 15.66 12.92 15.66l-7.824-18.79z" fill="#c89350"/><path d="m641.1-549.8-43.62 16.86-48.6-7.227s-13.04-3.493-19.68 5.782c-6.638 9.395-71.01 95.64-71.01 95.64l15.41 11.56 39.71-39.63s36.98-5.18 33.43-36.38c52.87 44.33 108.2 21.32 111.7-4.939 3.556-26.5-17.31-41.68-17.31-41.68z" fill="#4058e5"/><path d="m590.7-534 1.067 0.1205s-0.4742 0-1.067-0.1205z" fill="url(#SVGID_00000062152678080955732880000001251185143344736188_-6)"/></g><path transform="matrix(1.185 0 0 1.205 288.9 -784.4)" d="m258 207.2 28.46 5.82-28.76-3.32z" fill="#210d99"/><path d="m513-512.4c-4.505 6.023-9.483 12.77-14.7 19.75 13.87 5.059 19.8 16.62 22.29 24.09 5.453-1.686 12.8-4.939 18.37-10.6-2.726-26.86-25.96-33.25-25.96-33.25z" fill="#5bb18b" stroke-width="1.195"/><polyline transform="matrix(1.185 0 0 1.205 288.9 -784.4)" points="169.9 120.4 168.7 102.4 211.4 102.4 209.9 119.9 209.9 119.9 169.9 120.4" fill="#4af0a7"/><path d="m492.2-658 0.9483 15.3 41.73-0.4818 1.185-14.82z" fill="#2d60f2" stroke-width="1.195"/><path d="m539.5-661.1 16.36-5.3s3.556 2.048 0.8298 6.384c-0.237 0.3614 0 0 0 0l-18.02 8.432z" fill="#46d797" stroke-width="1.195"/><g transform="matrix(1.185 0 0 1.205 288.9 -784.4)" fill="#6dff8e"><path d="m212.4 171.2-2.5 0.9 0.7 2.1v0.3c-0.1 0.1-0.1 0.2-0.3 0.2h-0.3c-0.1-0.1-0.2-0.1-0.2-0.3l-2-5.9v-0.3c0.1-0.1 0.1-0.2 0.3-0.2l2.9-1c0.5-0.2 0.9-0.1 1.4 0.1 0.4 0.2 0.7 0.6 0.9 1l0.3 0.8c0.2 0.5 0.1 0.9-0.1 1.4-0.3 0.4-0.6 0.7-1.1 0.9zm0-2.8c-0.1-0.2-0.2-0.4-0.5-0.5-0.2-0.1-0.4-0.1-0.7 0l-2.5 0.9 0.9 2.5 2.5-0.9c0.2-0.1 0.4-0.2 0.5-0.5 0.1-0.2 0.1-0.4 0-0.7z"/><path d="m221.2 170.9-4.2 1.5h-0.3c-0.1-0.1-0.2-0.1-0.2-0.3l-2-5.9v-0.3c0.1-0.1 0.1-0.2 0.3-0.2h0.3c0.1 0.1 0.2 0.1 0.2 0.3l1.8 5.3c0 0.1 0.1 0.1 0.1 0.1h0.2l3.6-1.2h0.3c0.1 0.1 0.2 0.1 0.2 0.3v0.3c-0.1 0-0.1 0.1-0.3 0.1z"/><path d="m228.2 168.4c-0.1 0.1-0.1 0.2-0.3 0.2h-0.3c-0.1-0.1-0.2-0.1-0.2-0.3l-0.7-1.9c0-0.1-0.1-0.1-0.1-0.1h-0.2l-2.9 1c-0.1 0-0.1 0.1-0.1 0.1v0.2l0.7 1.9v0.3c-0.1 0.1-0.1 0.2-0.3 0.2h-0.3c-0.1-0.1-0.2-0.1-0.2-0.3l-1.6-4.6c-0.2-0.5-0.1-0.9 0.1-1.4 0.2-0.4 0.6-0.7 1-0.9l1.7-0.6c0.5-0.2 0.9-0.1 1.4 0.1 0.4 0.2 0.7 0.6 0.9 1l1.6 4.6c-0.1 0.3-0.1 0.4-0.2 0.5zm-2.4-4.7c-0.1-0.2-0.2-0.4-0.5-0.5-0.2-0.1-0.4-0.1-0.7 0l-1.7 0.6c-0.2 0.1-0.4 0.2-0.5 0.5-0.1 0.2-0.1 0.4 0 0.7l0.5 1.5c0 0.1 0.1 0.1 0.1 0.1h0.2l2.9-1c0.1 0 0.1-0.1 0.1-0.1v-0.2z"/><path d="m234.5 164.5c0.2 0.5 0.1 0.9-0.1 1.4-0.2 0.4-0.6 0.7-1 0.9l-2.1 0.7h-0.3c-0.1-0.1-0.2-0.1-0.2-0.3v-0.3c0.1-0.1 0.1-0.2 0.3-0.2l2.1-0.7c0.2-0.1 0.4-0.2 0.5-0.5 0.1-0.2 0.1-0.4 0-0.7l-0.4-1.1c-0.2 0.2-0.5 0.4-0.8 0.5l-1.7 0.6c-0.5 0.2-0.9 0.1-1.4-0.1-0.4-0.2-0.7-0.6-0.9-1l-0.7-2.1v-0.3c0.1-0.1 0.1-0.2 0.3-0.2h0.3c0.1 0.1 0.2 0.1 0.2 0.3l0.7 2.1c0.1 0.2 0.2 0.4 0.5 0.5 0.2 0.1 0.4 0.1 0.7 0l1.7-0.6c0.2-0.1 0.4-0.2 0.5-0.5 0.1-0.2 0.1-0.4 0-0.7l-0.7-2.1v-0.3c0.1-0.1 0.1-0.2 0.3-0.2h0.3c0.1 0.1 0.2 0.1 0.2 0.3z"/><path d="m239.4 158.1-3.6 1.2c-0.1 0-0.1 0.1-0.1 0.1v0.2l0.6 1.7c0 0.1 0.1 0.1 0.1 0.1h0.2l2.7-0.9h0.3c0.1 0.1 0.2 0.1 0.2 0.3v0.3c-0.1 0.1-0.1 0.2-0.3 0.2l-2.7 0.9c-0.1 0-0.1 0.1-0.1 0.1v0.2l0.6 1.7c0 0.1 0.1 0.1 0.1 0.1h0.2l3.6-1.2h0.3c0.1 0.1 0.2 0.1 0.2 0.3v0.3c-0.1 0.1-0.1 0.2-0.3 0.2l-4.2 1.5h-0.3c-0.1-0.1-0.2-0.1-0.2-0.3l-2-5.9v-0.3c0.1-0.1 0.1-0.2 0.3-0.2l4.2-1.5h0.3c0.1 0.1 0.2 0.1 0.2 0.3v0.3c-0.1 0.2-0.2 0.2-0.3 0.3z"/><path d="m247 158.8c0.2 0.1 0.4 0.2 0.6 0.4s0.3 0.4 0.4 0.6l0.4 1.3v0.3c-0.1 0.1-0.1 0.2-0.3 0.2h-0.3c-0.1-0.1-0.2-0.1-0.2-0.3l-0.4-1.3c-0.1-0.2-0.2-0.4-0.5-0.5-0.2-0.1-0.4-0.1-0.7 0l-2.5 0.9 0.7 2.1v0.3c-0.1 0.1-0.1 0.2-0.3 0.2h-0.3c-0.1-0.1-0.2-0.1-0.2-0.3l-2-5.9v-0.3c0.1-0.1 0.1-0.2 0.3-0.2l2.9-1c0.5-0.2 0.9-0.1 1.4 0.1 0.4 0.2 0.7 0.6 0.9 1l0.3 0.8c0.1 0.2 0.1 0.5 0.1 0.7-0.1 0.4-0.2 0.6-0.3 0.9zm-1-2.1c-0.1-0.2-0.2-0.4-0.5-0.5-0.2-0.1-0.4-0.1-0.7 0l-2.5 0.9 0.9 2.5 2.5-0.9c0.2-0.1 0.4-0.2 0.5-0.5 0.1-0.2 0.1-0.4 0-0.7z"/><path d="m224.1 186.4-3.2 1.1c-0.9 0.3-1.7 0.2-2.5-0.2s-1.4-1-1.7-1.9l-2.2-6.3c-0.3-0.9-0.2-1.7 0.2-2.5s1-1.4 1.9-1.7l3.2-1.1c0.9-0.3 1.7-0.2 2.5 0.2s1.4 1 1.7 1.9l2.2 6.3c0.3 0.9 0.2 1.7-0.2 2.5s-1 1.4-1.9 1.7zm-1.7-10c-0.2-0.4-0.4-0.8-0.8-1s-0.8-0.2-1.3-0.1l-3.2 1.1c-0.4 0.2-0.8 0.4-1 0.8s-0.2 0.8-0.1 1.3l2.2 6.3c0.2 0.4 0.4 0.8 0.8 1s0.8 0.2 1.3 0.1l3.2-1.1c0.4-0.2 0.8-0.4 1-0.8s0.2-0.8 0.1-1.3z"/><path d="m239.1 181.2c-0.3 0.1-0.5 0-0.8-0.2l-9.5-6.8 3 8.6c0.1 0.2 0.1 0.4 0 0.6s-0.3 0.4-0.5 0.4c-0.2 0.1-0.4 0.1-0.6 0s-0.3-0.3-0.4-0.5l-3.8-11c-0.1-0.2-0.1-0.4 0-0.6s0.3-0.4 0.5-0.4c0.3-0.1 0.6 0 0.8 0.2l9.5 6.8-3-8.6c-0.1-0.2-0.1-0.4 0-0.6s0.3-0.4 0.5-0.4c0.2-0.1 0.4-0.1 0.6 0s0.3 0.3 0.4 0.5l3.8 11c0.1 0.2 0.1 0.4 0 0.6s-0.3 0.3-0.5 0.4z"/><path d="m247.9 165.8-6.7 2.3c-0.1 0-0.2 0.1-0.2 0.2-0.1 0.1-0.1 0.2 0 0.3l1.1 3.2c0 0.1 0.1 0.2 0.2 0.2 0.1 0.1 0.2 0.1 0.3 0l5.1-1.8c0.2-0.1 0.4-0.1 0.6 0s0.4 0.3 0.4 0.5c0.1 0.2 0.1 0.4 0 0.6s-0.3 0.3-0.5 0.4l-5.1 1.8c-0.1 0-0.2 0.1-0.2 0.2-0.1 0.1-0.1 0.2 0 0.3l1.1 3.2c0 0.1 0.1 0.2 0.2 0.2 0.1 0.1 0.2 0.1 0.3 0l6.7-2.3c0.2-0.1 0.4-0.1 0.6 0s0.4 0.3 0.4 0.5c0.1 0.2 0.1 0.4 0 0.6s-0.3 0.3-0.5 0.4l-7.9 2.7c-0.2 0.1-0.4 0.1-0.6 0s-0.3-0.3-0.4-0.5l-3.8-11c-0.1-0.2-0.1-0.4 0-0.6s0.3-0.4 0.5-0.4l7.9-2.7c0.2-0.1 0.4-0.1 0.6 0s0.4 0.3 0.4 0.5c0.1 0.2 0.1 0.4 0 0.6-0.1 0.4-0.3 0.5-0.5 0.6z"/></g><path d="m641.1-489.9c-31.06 16.74-97.08-18.79-97.08-18.79s0.2371 29.27-29.16 36.02l-45.16 42.4 3.912 2.891 39.71-39.63s36.98-5.18 33.43-36.38c14.11 11.8 28.45 18.91 41.96 22.28h0.1185c2.608 0.7227 5.334 1.205 7.824 1.566 32.24 5.902 57.85 0.2409 61.76-28.91 3.556-26.26-17.31-41.56-17.31-41.56s31.06 43.24 0 60.11z" fill="#5bb18b" stroke-width="1.195"/><path d="m589.3-534.3 2.489 0.3614s-1.185-0.1205-2.489-0.3614z" fill="url(#SVGID_00000015334095189610067110000007763184431972721280_-7)" stroke-width="1.195"/><polygon transform="matrix(1.185 0 0 1.205 288.9 -784.4)" points="301.9 190.8 291.1 187.7 260.4 142.1 254.5 145.5 287.4 189.1" fill="#2c11ca"/><g stroke-width="1.195"><path d="m634-558.3c-3.556-4.216-6.875-8.552-10.08-13.01-3.201-4.457-6.283-9.034-9.365-13.49l-4.504-6.866c-1.423-2.289-2.964-4.698-4.386-6.986-2.845-4.698-5.571-9.516-8.061-14.45 3.556 4.216 6.875 8.552 10.08 13.01 1.66 2.168 3.2 4.457 4.742 6.745l4.623 6.866c2.964 4.577 6.046 9.155 8.772 13.97 2.845 4.457 5.69 9.275 8.179 14.21z" fill="#5bb18b"/><path d="m705.4-701.1s-94.24 66.73-114.4 91.3c2.134-1.084 4.386-2.168 6.638-3.252l-0.237-0.2409 60.69-47.7 56.31-40.11z" fill="#2c11ca"/><path d="m456.3-440.9 23.83 12.65v25.3s-7.942 1.325-20.74 0.6023c-13.99-0.8432-33.78-4.095-55.36-14.21l6.164-11.68 7.942 4.095z" fill="#3a358d"/></g><g fill="#2e49d3"><path d="m459.3-402.2s0.2371-24.93 20.74-19.15v18.55s-10.79 1.566-20.74 0.6023z" stroke-width="1.195"/><path d="m426.3-430.8c0.2371 1.807 3.793 12.41 3.793 12.41l6.401-3.132-3.793-12.05z" stroke-width="1.195"/><polygon transform="matrix(1.185 0 0 1.205 288.9 -784.4)" points="133.8 297.7 130.1 286.7 124.5 290.1 128 300.7"/></g><path d="m566.6-382.4c1.067-3.975 2.015-8.07 2.489-12.05 0.474-3.975 0.7111-8.07 0.3555-11.93-0.1185-1.927-0.4742-3.855-1.067-5.782-0.4741-1.927-1.186-3.734-2.015-5.541-1.659-3.614-4.267-6.745-7.231-9.636 3.675 1.807 6.994 4.698 9.365 8.432 2.371 3.614 3.556 7.95 4.03 12.29 0.3557 4.336 0 8.673-1.067 12.77-1.067 3.975-2.608 7.95-4.86 11.44z" fill="#5bb18b" stroke-width="1.195"/></g><polygon transform="matrix(1.185 0 0 1.205 288.9 -808.5)" points="342.2 449.7 98.5 449.7 16 122.3 416 122.3" fill="url(#SVGID_00000099642219374492590660000005888953954823379866_-8-5)"/><g fill="#fff"><rect x="323.8" y="-565.7" width="32.12" height="32.64" stroke-width="1.195"/><polygon transform="matrix(1.185 0 0 1.205 339.7 -818)" points="340.1 293.7 348.9 284.8 339.4 275.2 330.5 284.1 321.6 275.2 312 284.8 320.9 293.7 312 302.6 321.6 312.1 330.5 303.3 339.4 312.1 348.9 302.6"/><polygon transform="matrix(.8429 0 0 .8603 420 -909.3)" points="330.5 303.3 339.4 312.1 348.9 302.6 340.1 293.7 348.9 284.8 339.4 275.2 330.5 284.1 321.6 275.2 312 284.8 320.9 293.7 312 302.6 321.6 312.1"/></g><g stroke-width="1.195"><rect x="715" y="-318.8" width="22.4" height="22.77" fill="url(#SVGID_00000135662366236152088080000005182324837458847156_-9)"/><rect x="346.1" y="-347.9" width="22.4" height="22.77" fill="url(#linearGradient247324)"/><rect x="758.8" y="-587.1" width="22.4" height="22.77" fill="url(#linearGradient199746)"/><rect x="746.2" y="-396.3" width="22.4" height="22.77" fill="url(#linearGradient199746-9)"/><rect x="633.4" y="-417.6" width="22.4" height="22.77" fill="#fff"/><rect x="466" y="-346.2" width="22.4" height="22.77" fill="url(#SVGID_00000162324876794369558870000013716977582968494465_-9)"/><rect x="720.2" y="-525.8" width="22.4" height="22.77" fill="url(#SVGID_00000033337568043871148290000014404713287555979927_-3)"/><rect x="434.5" y="-417.3" width="12.92" height="13.13" fill="url(#SVGID_00000031203737344611630900000009513098269310999965_-9)"/><rect x="353.5" y="-494.2" width="6.401" height="6.505" fill="url(#SVGID_00000065764674001874098330000002886773569463415983_-5)"/><rect x="710.4" y="-606.2" width="6.401" height="6.505" fill="url(#SVGID_00000137849691045815117260000002969071376749114261_-7)"/><rect x="307.9" y="-598.8" width="6.401" height="6.505" fill="url(#SVGID_00000009562801839904967480000004709470660448234404_-0)"/><rect x="387.3" y="-710.7" width="6.401" height="6.505" fill="url(#SVGID_00000009562801839904967480000004709470660448234404_-0-9)"/><rect transform="matrix(.9998 -.01776 -.018 -.9998 0 0)" x="524.3" y="817.2" width="22.4" height="22.77" fill="url(#linearGradient199746-6-2)"/></g><rect transform="matrix(.9999 -.01628 -.01964 -.9998 0 0)" x="652.9" y="804.2" width="16.29" height="15.17" fill="url(#linearGradient454098)" stroke-width=".8319"/><g stroke-width="1.195"><rect transform="matrix(.9998 -.01776 -.018 -.9998 0 0)" x="472.3" y="759.3" width="22.4" height="22.77" fill="url(#SVGID_00000033337568043871148290000014404713287555979927_-3-6-6)"/><rect transform="matrix(-.9998 .01776 -.018 -.9998 0 0)" x="-427.7" y="813" width="6.401" height="6.505" fill="url(#SVGID_00000009562801839904967480000004709470660448234404_-0-5)"/><rect transform="matrix(-.9998 .01776 -.018 -.9998 0 0)" x="-600.3" y="781" width="6.401" height="6.505" fill="url(#linearGradient454063)"/><rect transform="matrix(-.9994 .03592 -.0364 -.9993 0 0)" x="-689.5" y="736.1" width="6.401" height="6.505" fill="url(#linearGradient452118)"/><rect x="397.9" y="-562.7" width="12.92" height="13.13" fill="url(#SVGID_00000163762707692139942980000011081566450392800154_-5)"/><rect transform="scale(-1,1)" x="-826.1" y="-714.9" width="32.12" height="32.64" fill="#fff"/><rect transform="scale(-1,1)" x="-796.4" y="-643.4" width="6.401" height="6.505" fill="url(#SVGID_00000065764674001874098330000002886773569463415983_-5-4)"/><rect transform="scale(-1,1)" x="-841.9" y="-747.9" width="6.401" height="6.505" fill="url(#SVGID_00000009562801839904967480000004709470660448234404_-0-8)"/><rect transform="scale(-1,1)" x="-752" y="-711.9" width="12.92" height="13.13" fill="url(#SVGID_00000163762707692139942980000011081566450392800154_-5-5)"/></g><polygon transform="matrix(-.8429 0 0 .8603 586.1 -681.6)" points="312 284.8 320.9 293.7 312 302.6 321.6 312.1 330.5 303.3 339.4 312.1 348.9 302.6 340.1 293.7 348.9 284.8 339.4 275.2 330.5 284.1 321.6 275.2" fill="#fff"/><g stroke-width="1.195"><rect transform="scale(-1,1)" x="-295.8" y="-378.5" width="6.401" height="6.505" fill="url(#SVGID_00000137849691045815117260000002969071376749114261_-7-6)"/><rect x="180.1" y="-487.2" width="32.12" height="32.64" fill="#fff"/><rect x="209.7" y="-415.7" width="6.401" height="6.505" fill="url(#SVGID_00000065764674001874098330000002886773569463415983_-5-4-7)"/><rect x="164.2" y="-520.3" width="6.401" height="6.505" fill="url(#SVGID_00000009562801839904967480000004709470660448234404_-0-8-5)"/><rect x="254.2" y="-484.2" width="12.92" height="13.13" fill="url(#SVGID_00000163762707692139942980000011081566450392800154_-5-5-3)"/><rect x="477.3" y="-331.4" width="12.92" height="13.13" fill="url(#SVGID_00000087405685089746856700000003259198590841549716_-6)"/><rect x="787.3" y="-340.7" width="6.401" height="6.505" fill="url(#SVGID_00000137849691045815117260000002969071376749114261_-7-9)"/><rect transform="scale(-1,1)" x="-828.9" y="-446.4" width="12.92" height="13.13" fill="url(#SVGID_00000163762707692139942980000011081566450392800154_-5-5-5)"/></g></g></svg>
