<svg width="120" height="120" version="1.1" viewBox="0 0 120 120" xmlns="http://www.w3.org/2000/svg">
 <g transform="matrix(.5902 0 0 .5851 -10.02 -8.766)" stroke-width=".9295">
  <g transform="matrix(1.015 0 0 1.013 -3.487 .5106)">
   <path d="m53.06 14.88h134.3c17.7 0 31.95 15.41 31.95 34.55v132.5c0 19.14-14.25 34.55-31.95 34.55h-134.3c-17.7 0-31.95-15.41-31.95-34.55v-132.5c0-19.14 14.25-34.55 31.95-34.55z" fill="#091a44" stroke-linecap="round" stroke-linejoin="round" stroke-width="5.09"/>
   <path d="m214.2 79.45a52.67 51 0 0 1-52.67 51 52.67 51 0 0 1-52.67-51 52.67 51 0 0 1 52.67-51 52.67 51 0 0 1 52.67 51z" fill="#091a44" stroke-linecap="round" stroke-linejoin="round" stroke-width="3.906"/>
   <path d="m218.4 51.26v34.81h-196.3l-0.233-34.78z" fill="#15244e"/>
   <path d="m155.1 29.57c-27.05 0-49.05 22.45-49.05 50.03l6e-3 0.01098c0 0.2213-3.4e-4 0.4457 0.0109 0.6535l-31.6 46.74 0.08121 0.0824c-0.8827-0.0682-1.768-0.1048-2.653-0.1098-20.43 4.7e-4 -37 16.49-37 36.83 0.0021 20.34 16.56 36.82 37 36.82 20.43-4.7e-4 36.99-16.48 37-36.82-0.0104-0.4341-0.0284-0.868-0.0542-1.301l45.15-32.87c0.3658 0.0111 0.744 0.022 1.11 0.022 27.06 0 49.05-22.46 49.05-50.05s-21.98-50.03-49.05-50.03zm0 16.75c18.03 0 32.69 14.96 32.69 33.33 0 18.39-14.66 33.35-32.69 33.35-18.01 0-32.67-14.96-32.67-33.35 0-18.38 14.66-33.33 32.67-33.33zm0.0433 8.243c-13.55 6e-6 -24.54 11.22-24.54 25.05s10.99 25.03 24.54 25.03c13.56 0 24.54-11.2 24.54-25.03 0-13.84-10.98-25.05-24.54-25.05zm-83.33 85.4c12.96 7.1e-4 23.47 10.77 23.47 24.05 2.9e-5 13.28-10.51 24.05-23.47 24.05-12.96-7e-4 -23.47-10.77-23.47-24.05-3.2e-5 -13.28 10.51-24.05 23.47-24.05zm0.1191 6.837c-9.618 2.2e-4 -17.42 7.806-17.42 17.44-9.88e-4 9.632 7.797 17.44 17.42 17.44 9.62-2.2e-4 17.42-7.809 17.42-17.44-0.0021-9.63-7.799-17.44-17.42-17.44z" fill="#fff" stroke-width="2.595" style="-inkscape-stroke:none"/>
   <path d="m44.39 146.8v34.81h-23.19l-0.02755-34.78z" fill="#fff"/>
  </g>
 </g>
</svg>