<svg version="1.1" viewBox="0 0 300.6 165" xmlns="http://www.w3.org/2000/svg" xmlns:xlink="http://www.w3.org/1999/xlink">
 <defs>
  <path id="SVGID_42_-7" d="m1534 406.4h-152.9c-1.64 0-2.97-1.33-2.97-2.97v-95.31c0-1.64 1.33-2.97 2.97-2.97h152.9c1.64 0 2.97 1.33 2.97 2.97v95.31c.01 1.64-1.33 2.97-2.97 2.97z"/>
 </defs>
 <style type="text/css">.custom-controls {
height: 64px;
fill: #fff;
}
.control-icon {
opacity: 0;
animation: icon-fade-in-out 1.5s ease-in-out infinite;
animation-fill-mode: forwards;
}
.stop {
animation-delay: .3s;
}
.play {
animation-delay: .1s;
}
.gamepad {
animation-delay: .7s;
padding: 0 0 0 20px;
}
@keyframes icon-fade-in-out {
0% {
opacity: 0;
}
10% {
opacity: 1;
}
80% {
opacity: 1;
}
90% {
opacity: 0;
}
100% {
opacity: 0;
}
}</style>
 <g transform="matrix(.5013 0 0 .4853 -608.1 -101.5)">
  <rect x="1214" y="209.4" width="599.2" height="340.3" fill="#4a5460" style="paint-order:fill markers stroke"/>
  <path d="m1753 527.4c-42.45 19.51-147.4 11.86-241.9 11.87-99.3.0139-188.1 13.13-239.3-21.18-51.16-34.31-39.88-88.22-39.9-126-.063-105.6 123.9-181.1 278.5-181.1 154.6-.0649 275.4 80.05 284.3 187.6 3.99 37.95 3.954 95.89-41.62 128.8z" fill="#2d3a48" style="paint-order:fill markers stroke"/>
  <path d="m1642 326.4-77.35 198.5-218.9-123 196.4-129.1z" clip-path="url(#SVGID_2_-8)" fill="#4c6179" stroke-width="1.075"/>
  <path d="m1288 464.6 468.5-.2963-.03 35.44c-5.004 6.692-8.274 20.52-38.84 26.45-49.61 9.621-116.4 3.475-195.9 5.134-151.2.3072-192.9 6.135-234.1-17.99z" fill="#475271"/>
  <path transform="matrix(.2815 0 0 1 1257 0)" d="m1745 547.5h-1640v-76.15c0-8.13 6.59-14.73 14.73-14.73h1626z" clip-path="url(#SVGID_2_-8)" fill="url(#SVGID_4_-4)"/>
  <path transform="matrix(.2815 0 0 1 1257 0)" d="m1775 456.7h-1666c-2.46 0-4.45 1.99-4.45 4.45l-1.02 51.48 5.501.7322 1.239-45.53c.0525-1.93 1.351-2.8 3.281-2.8h1661z" clip-path="url(#SVGID_2_-8)" fill="#404966"/>
  <g clip-path="url(#SVGID_2_-8)">
   <path d="m1576 456.7c-.71-3.61-4.02-14.43-18.19-14.43s-9.4 10.81-7.41 14.43z" fill="#20242d"/>
   <linearGradient id="SVGID_41_-1" x1="1457" x2="1457" y1="452.9" y2="417.2" gradientTransform="matrix(1.207 0 0 1.101 -312.6 -46.02)" gradientUnits="userSpaceOnUse">
    <stop stop-color="#475065" offset="0"/>
    <stop stop-color="#2f3543" offset="1"/>
   </linearGradient>
   <rect x="1435" y="398.5" width="20.28" height="58.21" fill="url(#SVGID_41_-1)" stroke-width="1.153"/>
   <g transform="matrix(1.057 0 0 1.097 -82.37 -40.75)" stroke-width="1.119">
    <rect x="1436" y="400.3" width="19.11" height="18.5" fill="#2e3441"/>
    <path d="m1534 407.9h-176.2c-5.024 0-9.093-3.941-9.093-8.806v-106.8c0-4.865 4.069-8.806 9.093-8.806h176.2c5.024 0 9.093 3.941 9.093 8.806v106.8c0 4.865-4.069 8.806-9.093 8.806z" fill="#475271"/>
    <path d="m1533 403.8h-173.9c-3.137 0-5.683-2.466-5.683-5.504v-105.1c0-3.038 2.546-5.504 5.683-5.504h173.9c3.137 0 5.683 2.466 5.683 5.504v105.1c0 3.038-2.546 5.504-5.683 5.504z" fill="#3d4661" opacity=".69"/>
   </g>
   <clipPath id="SVGID_43_-6">
    <use width="100%" height="100%" overflow="visible" xlink:href="#SVGID_42_-7"/>
   </clipPath>
   <path transform="matrix(1.202 0 0 1.208 -305.1 -91.25)" d="m1534 406.4h-152.9c-1.64 0-2.97-1.33-2.97-2.97v-95.31c0-1.64 1.33-2.97 2.97-2.97h152.9c1.64 0 2.97 1.33 2.97 2.97v95.31c.01 1.64-1.33 2.97-2.97 2.97z" clip-path="url(#SVGID_43_-6)" fill="#5f6c7b"/>
   <g fill="#20242d" stroke-width="1.119">
    <path d="m1383 452.5h-2.603c-1.034 0-1.864-.8036-1.864-1.805 0-1.002.8298-1.805 1.864-1.805h2.603c1.034 0 1.864.8036 1.864 1.805 0 1.002-.8297 1.805-1.864 1.805z"/>
    <path d="m1393 452.5h-2.603c-1.034 0-1.864-.8036-1.864-1.805 0-1.002.8298-1.805 1.864-1.805h2.603c1.034 0 1.864.8036 1.864 1.805 0 1.002-.8411 1.805-1.864 1.805z"/>
    <path d="m1401 452.5h-2.603c-1.034 0-1.864-.8036-1.864-1.805 0-1.002.8297-1.805 1.864-1.805h2.603c1.034 0 1.864.8036 1.864 1.805 0 1.002-.8411 1.805-1.864 1.805z"/>
    <path d="m1411 452.5h-2.603c-1.034 0-1.864-.8036-1.864-1.805 0-1.002.8297-1.805 1.864-1.805h2.603c1.034 0 1.864.8036 1.864 1.805 0 1.002-.8297 1.805-1.864 1.805z"/>
    <path d="m1454 452.5h-2.603c-1.034 0-1.864-.8036-1.864-1.805 0-1.002.8297-1.805 1.864-1.805h2.603c1.034 0 1.864.8036 1.864 1.805 0 1.002-.8298 1.805-1.864 1.805z"/>
    <path d="m1445 452.5h-18c-1.034 0-1.864-.8036-1.864-1.805 0-1.002.8298-1.805 1.864-1.805h18c1.034 0 1.864.8036 1.864 1.805 0 1.002-.8298 1.805-1.864 1.805z"/>
    <path d="m1463 452.5h-2.603c-1.034 0-1.864-.8036-1.864-1.805 0-1.002.8297-1.805 1.864-1.805h2.603c1.034 0 1.864.8036 1.864 1.805 0 1.002-.8297 1.805-1.864 1.805z"/>
    <path d="m1473 452.5h-2.603c-1.034 0-1.864-.8036-1.864-1.805 0-1.002.8298-1.805 1.864-1.805h2.603c1.034 0 1.864.8036 1.864 1.805 0 1.002-.8297 1.805-1.864 1.805z"/>
    <path d="m1482 452.5h-2.603c-1.034 0-1.864-.8036-1.864-1.805 0-1.002.8298-1.805 1.864-1.805h2.603c1.034 0 1.864.8036 1.864 1.805 0 1.002-.8411 1.805-1.864 1.805z"/>
    <path d="m1420 452.5h-2.603c-1.034 0-1.864-.8036-1.864-1.805 0-1.002.8297-1.805 1.864-1.805h2.603c1.034 0 1.864.8036 1.864 1.805 0 1.002-.8298 1.805-1.864 1.805z"/>
   </g>
   <path d="m1520 456.7h-148.7c0-3.203 2.682-5.79 5.979-5.79h136.7c3.319 0 5.99 2.598 5.99 5.79z" fill="#2f3543" stroke-width="1.119"/>
   <path d="m1303 418.6c4.464-4.303 9.003-4.554 14.54-.4627 3.037 2.807 5.374 4.721 6.706 8.183 3.899-3.509 5.458-2.749 5.825 1.297.066 3.024-1.275 5.484-2.785 7.754.8035 3.086 1.348 6.281.9109 8.817-2.045 6.736-4.979 12.2-10.12 11.69-3.428-1.244-1.034-2.418-.678-2.989-4.367.7147-7.793.8217-9.866.307-.8344 2.227-1.29 3.709-3.248 3.848-2.795-.708-2.476-1.517-3.076-3.312-7.104.1626-8.135-9.315-6.871-15.04.6967-1.028-.9158-1.966-1.932-4.33-1.429-3.325-1.636-5.735.6286-8.059 1.12-1.033 2.193-.1997 3.916 1.357.8452-2.612 2.74-6.199 6.056-9.066z" fill="#f3ca33" opacity=".923" stroke="#000" stroke-width=".5497"/>
   <g stroke-width="1.196">
    <path d="m1300 429.8c.5751 9.669 4.529 17.11 11.73 17.44 6.432-1.06 9.221-6.419 9.821-14.9.2809-1.803-.039-3.135-.6674-4.224-7.79 1.734-15.57 1.72-20.89 1.69z" fill="#5f4d4d" opacity=".923"/>
    <path d="m1304 443c3.141-4.902 10.64-4.819 15.84-2.268-2.292 4.786-5.253 5.932-8.12 6.597-4.254-.2081-6.112-2.009-7.723-4.328z" fill="#c32729" opacity=".923"/>
    <path d="m1302 426.7c.328.2008 1.341-1.101 1.873-1.025 1.133.1151 2.109-.003 3.155-.1607.2099.0514 1.33-.1314.057-.3683.2641-.6736-.6331-3.285-2.243-2.907-.9918.3616-1.487 1.462-1.635 3.006-.9568.5217-1.396 1.357-1.206 1.456z" opacity=".923"/>
    <path d="m1315 425.3c.3814.0365 1.229-.2479 1.752-.1445 1.02.1325 2.434.2263 3.743.2622.1657.003 1.244.1695-.049-.3886.036-.8071-1.251-3.996-2.544-3.492-1.019.437-1.853 2.053-1.81 3.061-.8429.2097-.9754.3919-1.147.4983-.049.0711-.091.1416.053.203z" fill="#080808" opacity=".923"/>
    <path d="m1306 434.4c-1.929-.956-2.33-2.795-2.407-4.51 1.888-.0335 3.674-.132 5.562-.1658-.06 2.607-.9814 5.144-3.154 4.677z" fill="#fff" opacity=".923"/>
    <path d="m1313 429.4c-.099 3.129-1.2 3.114-1.818 3.309-1.15-.7741-.8355-1.638-.9647-3.078.011.0246 2.096-.1543 2.782-.2319z" fill="#fff" opacity=".923"/>
   </g>
   <path d="m1639 396.8s20.44 38.73 16.65 47.7c-3.8 8.97-74.28 8.84-77.11 8.45-1.33-.18-3.1.56-6.14-1.3-.76-.46-17.72 2.52-18.48.35s4.46-1.34 8.2-2.59c3.29-1.1 5.48-2.4 5.16-2.61-1.51-.96-3.39-2.15-3.89-2.4-1.98-.99-3.47-1.55-3.47-1.55s-4.33-.24-5.55.29-4.06 3.21-5.15 3.15c-1.44-.09-.69-1.4-.69-1.4s-1.38 1.51-2.46.09 4.29-6.6 5.91-7.2c2.34-1.26 8.71-3.11 11.77-2.61 3.62.67 14.16 10.88 16.3 10.63 2.15-.24 57.66-6.36 58.48-11.47s-15.91-29.55-15.91-29.55z" fill="#eaa78c"/>
   <path d="m1549 444.8c.58-.92 1.24-1.78 1.94-2.61.36-.41.72-.82 1.14-1.19.1-.1.21-.19.33-.28.11-.09.26-.19.38-.26.24-.13.48-.27.73-.39.49-.25 1-.47 1.52-.65.52-.19 1.04-.34 1.58-.47 1.07-.25 2.15-.41 3.24-.4.06 0 .11.05.11.11 0 .05-.04.1-.09.11-1.05.2-2.09.47-3.09.8-1.01.33-1.98.74-2.91 1.21-.23.12-.46.26-.68.38-.12.07-.19.12-.29.2s-.19.15-.29.24c-.38.35-.76.72-1.13 1.1-.75.76-1.48 1.54-2.26 2.29-.06.06-.15.06-.21 0-.05-.06-.05-.13-.02-.19z" fill="#f77e5d"/>
   <path d="m1587 484.1s-52.67-11.29-82.85.4c-18.44 7.14-5.24 27.37-3.57 34.49.79 3.37 82.26 1.98 82.26 1.98z" fill="#042b4f"/>
   <path d="m1548 392.5s-19.99 41.89-21.32 41.99c-13.25.97-56.67-1.09-56.67-1.09s-18.7 0-21.42.96c-8.48 2.99-9.94 4.09-13.9 8.52-3.15 3.52-4.2 7.43-3.53 7.62 1.44.4 3.36-3.8 6.32-6.24 2.97-2.44 6.16-4.52 6.33-4.17s-3.64 3.19-4.99 4.93c-2.1 2.71-4.18 7-3.01 7.35s2.96-3.11 5.68-6.05c2.84-3.06 6.74-4.4 6.74-4.4s-1.97 1.77-3.26 4.56c-1.12 2.41-1.93 5.11-1.23 5.22 1.52.24 2.1-3.56 4.04-5.63 1.94-2.06 3.71-2.62 3.71-2.62s4.11 1.02 8.56.48 9.25-2.64 9.25-2.64 55.01 13.42 64.67 10.52c8.64-2.6 29.01-43.61 29.01-43.61z" fill="#fdbfa1"/>
   <path d="m1536 418-.87 2.21s-1.57 6.1 5.94 10.56c5.44 3.23 9.66.6 9.66.6l2.38-4.15z" fill="#f77e5d" opacity=".21"/>
   <path d="m1536 418.6s18.03-42.94 25.42-50.66c9.6-10.04 44.43-6.71 44.43-6.71l3.07 118.6s-28.04 9.04-31.34 1.2c-7.93-18.8-10.49-75.96-10.49-75.96l-14.85 24.05s-4.73-.15-8.83-2.73c-4.11-2.56-7.41-7.75-7.41-7.75z" fill="#fe9b3c"/>
   <path d="m1576 338.7s5.12-1.97 6.38 2.64c1.27 4.61.65 16.71.65 16.71l17.45 1-5.42-50.58s-.88-1.76-8.4 8.38-10.66 21.85-10.66 21.85z" fill="#edad94"/>
   <path d="m1571 339.6s1.91-.06 2.99-.24c2.03-.35 3.87-1.04 4.56-.92 3.07.45 3.54 3.56 3.54 3.56s.81-3.18.87-8.63c.04-3.95-.34-9.25-.34-9.25z" fill="#f77e5d"/>
   <path d="m1571 339.6s1.91-.06 2.99-.24c2.03-.35 3.87-1.04 4.56-.92 3.07.45 3.54 3.56 3.54 3.56s.81-3.18.87-8.63c.04-3.95-.34-9.25-.34-9.25z" fill="#371369" opacity=".25"/>
   <path d="m1584 331c-.43 21.41 6.68 17.92 6.68 17.92s-.8 8.03 5.02 9.84c5.3 1.65 5.99-.32 5.99-.32s-17.61-31.08-17.69-27.44z" fill="#f77e5d"/>
   <path d="m1575 278.4c-11.78-.64-11.06 8.49-11.21 9.13-1.54 6.51-1.51 49.22 5.32 51.74 1.12.43 3.18.37 4.77-.24 12.3-4.77 18.35-45.9 16.7-51.88-1.88-6.77-12.1-8.56-15.58-8.75z" fill="#fdbfa1"/>
   <linearGradient id="SVGID_45_-0" x1="1563" x2="1563" y1="323.5" y2="306.1" gradientUnits="userSpaceOnUse">
    <stop stop-color="#F77E5D" offset="0"/>
    <stop stop-color="#F88D6D" offset=".2962"/>
    <stop stop-color="#FCB597" offset=".8737"/>
    <stop stop-color="#FDBFA1" offset="1"/>
   </linearGradient>
   <path d="m1564 306.4s-2.42 9.65-2.14 13.38c.07.98 1.83 1.37 2.62 1.5.23.04.38.05.38.05z" fill="url(#SVGID_45_-0)"/>
   <path d="m1564 287.5c-.28 1.27-.43 2.39-.43 2.39s.7.69 2.22 1.13c2.12.61 3.33-.1 4.97 1.19.8.63 4.29 8.4 5.99 6.23 1.26-1.61-3.06-13.87-3.06-13.87l-9.48.68s.04 1.12-.21 2.25z" fill="#f77e5d"/>
   <path d="m1566 302.6c.36-1.04-1.83-2.84-2.63-3.31-.45-.27-1.38-.42-1.54.28-.3 1.3 3.26 5.64 4.17 3.03z" fill="#5a352b"/>
   <path d="m1620 343.6h-.23c-.07 0-.12-.05-.12-.12s.05-.12.12-.12h.23c.07 0 .12.05.12.12.01.07-.05.12-.12.12z"/>
   <path d="m1567 287s-3.7 1.15-6.09-.5c-4.15-2.87-7.21-11.49-2.55-19.43 4.31-7.34 12.12-6.01 12.42-4.54.3 1.49-1.64 1.65-2.3 3.26s-.34 3.17-.34 3.17 2.18-3.04 4.79-4.37c3.42-1.74 5.72-1.5 5.85-.54.09.62-1.04 1.93-1.41 2.88-.33.85.11 1.39.11 1.39s2.88-1.66 5.94-1.62c4.49.06 6.32 1.84 6.32 1.84l10.26 2.54s9.32-.88 14.63 9.97c7.46 15.24-.4 31.22-1.61 46.45-1.49 18.58 8.78 27.13 2.75 33.16-6.07 6.07-13.25-2.44-13.25-2.44s-2.23 1.74-5.9-1.54c-4.14-3.7-4.83-10.53-4.83-10.53s-2.03.72-4.43-1.82c-4.6-4.87-4.13-25.2-4.13-25.2s2.25-11.64-3.8-16.8c-4.36-3.72-6.31-13.24-6.31-13.24s-2.04.17-3.57-.34c-1.53-.54-2.55-1.75-2.55-1.75z" fill="#704438"/>
   <path d="m1591 346c-.33-.81-.53-1.66-.65-2.52-.13-.86-.17-1.73-.12-2.61.05-.87.16-1.75.45-2.6.27-.84.68-1.67 1.31-2.3.05-.05.13-.05.18 0 .04.04.05.09.03.13-.32.79-.51 1.58-.64 2.38s-.18 1.62-.22 2.44-.04 1.65-.05 2.49c0 .84 0 1.68-.03 2.54 0 .07-.06.13-.13.12-.07.01-.11-.02-.13-.07z" fill="#2d130c"/>
   <path d="m1602 358.5c-.38-.28-.7-.62-.98-1s-.51-.79-.69-1.23-.3-.91-.33-1.39.06-.97.25-1.4c.03-.06.1-.09.17-.06.04.02.07.05.07.09.08.47.1.88.2 1.29.09.41.17.82.32 1.21.28.8.69 1.57 1.16 2.31.04.06.02.14-.03.18-.04.03-.1.03-.14 0z" fill="#180c35"/>
   <path d="m1567 287.3c-.03 0-.05-.01-.07-.02s-1.51-1.15-.99-3.34c.02-.07.08-.11.15-.09s.11.08.09.15c-.48 2.03.88 3.08.9 3.09.05.04.07.12.03.17-.03.02-.07.04-.11.04z"/>
   <path d="m1575 296.2c-1.55-3.61-2.28-7.15-2.28-7.15s-2.04.17-3.57-.34c-1.53-.52-2.55-1.73-2.55-1.73s-3.7 1.15-6.09-.5c-4.15-2.87-7.21-11.49-2.55-19.43 0 0-1.61 4.91.73 10.89 2.33 5.99 5.83 6.32 5.83 6.32s1.31 1.58 4.3 2.11c4.42.52 4.62-.29 4.82-.09.35.35.22 2.02.4 4.09.24 2.73.96 5.83.96 5.83z" fill="#4a2920" opacity=".56"/>
   <path d="m1564 321.5c.88 9.12 2.53 16.73 5.3 17.75 1.12.43 3.18.37 4.77-.24 5.6-2.17 9.91-11.89 12.78-22.4l-2.25-.62.51-4.47-7.87-.82s-.43 12.78-3.11 13.79-3.18-1.38-5.78-2.47c-2.49-1.04-4.37-.84-4.37-.84z" fill="#371369" opacity=".25"/>
   <path d="m1565 324.5s2.41 1.48 2.45 2.82c.06 2.07-1.73 2.01-1.73 2.01s-.28-1.1-.44-2.31c-.18-1.13-.28-2.52-.28-2.52z" fill="#f2af94"/>
   <path d="m1578 293.9c.2.28-2.21-9.02 3.11-17.08 5.67-8.59 12.53-9.17 12.53-9.17l4.36 2.45s-6.4.28-10.74 6.61-3.3 17.01-3.3 17.01-6.16-.1-5.96.18z" fill="#5635b0"/>
   <path d="m1578 293.7-.2-1.73s1.06-1.38 2.58-1.67c2.66-.5 3.48.41 3.48.41l.24 2.72z" fill="#331768" opacity=".4"/>
   <path d="m1572 336.2c-4.5 0-9.12-3.42-9.35-3.6-.21-.16-.25-.46-.09-.67s.46-.25.67-.1c.06.05 6.32 4.68 10.94 3.06 4.77-1.67 5.38-14.9 5.39-15.03.01-.26.23-.47.5-.46.26.01.47.23.46.5-.02.57-.66 14.01-6.03 15.89-.82.29-1.65.41-2.49.41z" fill="#5645a8"/>
   <path d="m1571 307c0-7.94 2.93-14.31 9.74-14.37 6.34-.05 9.74 6.43 9.74 14.37s-3.47 14.48-9.74 14.37c-7.06-.12-9.74-6.44-9.74-14.37z" fill="#6a62d3"/>
   <path d="m1572 307.4c0-6.14 3.2-11.13 7.15-11.13s7.15 4.98 7.15 11.13-3.2 11.13-7.15 11.13c-3.95-.01-7.15-4.99-7.15-11.13z" fill="#bea3e8"/>
   <path d="m1574 307c0-3.34 1.83-6.05 4.1-6.05 2.26 0 4.1 2.71 4.1 6.05s-1.84 6.05-4.1 6.05c-2.27 0-4.1-2.71-4.1-6.05z" fill="#7a6ce0" opacity=".54"/>
   <path d="m1580 299.2c.85.22 1.61.71 2.24 1.3.62.6 1.12 1.32 1.51 2.08.78 1.53 1.13 3.23 1.15 4.92s-.3 3.4-1.04 4.94c-.37.77-.85 1.49-1.44 2.12-.6.61-1.34 1.14-2.18 1.4-.17.05-.35-.04-.4-.21-.05-.16.03-.32.18-.39.69-.3 1.3-.78 1.79-1.36.5-.58.9-1.24 1.2-1.95.6-1.42.89-2.99.87-4.54-.01-1.56-.32-3.11-.96-4.52-.32-.7-.74-1.35-1.26-1.91-.51-.56-1.14-1.01-1.84-1.27-.17-.07-.26-.25-.19-.41.05-.16.21-.24.37-.2z" fill="#fff" opacity=".33"/>
   <path d="m1575 314.1c-.83-.84-1.36-1.92-1.69-3.03-.32-1.12-.44-2.29-.32-3.43.02-.19.19-.33.39-.31.17.02.29.15.31.31.13 1.08.3 2.13.61 3.14.3 1.01.72 1.97 1.25 2.89.1.17.04.39-.12.49-.15.08-.32.05-.43-.06z" fill="#fff" opacity=".33"/>
   <path d="m1565 333.2c-.3.65-1.22.87-2.05.49s-1.26-1.22-.96-1.88c.3-.65 1.22-.87 2.05-.49s1.26 1.23.96 1.88z" fill="#473b9b"/>
   <path d="m1611 283 .63-2.16s-10.48-.72-13.5 11.67c-1.87 7.68-.34 16.03 0 26.54.33 10.24-.23 19.24-.23 19.24l10.42-19.24z" fill="#2d130c" opacity=".56"/>
   <path d="m1583 358.6.26-2.76s2.43-4.61 7.36-6.94c2.15-2.78.8 3.88.8 3.88z" fill="#e27259"/>
   <path d="m1567 405.2 3.68-7.41s2.35 4.15 1.8 10.4c-.55 6.24-4.24 14.98-4.24 14.98z" fill="#e55b48" opacity=".49"/>
   <path d="m1582 361.3-2.81.16s-12.68 6.2-5.04 30.65c2.54 8.14 6.11 16.28 6.41 26.31.3 9.84-.97 16.07-6.44 28.4-4.32 9.74-1.56 14.23-1.11 17.68.74 5.59 2.9 12.32 2.9 12.32l24.92-.53-3.07-108.8-15.76-6.23z" fill="#e55b48" opacity=".67"/>
   <path d="m1579 501.8s-7.7.49-15.07-2.92c-7.69-3.56-16.47-8.68-29.76-6.64-26.03 4.01-18.09 28.51-18.09 28.51l59.75 1.91z" fill="#16233d"/>
   <linearGradient id="SVGID_47_-5" x1="1600" x2="1599" y1="274.2" y2="412.9" gradientUnits="userSpaceOnUse">
    <stop stop-color="#1d2e55" offset=".2651"/>
    <stop stop-color="#3d4c6f" offset="1"/>
   </linearGradient>
   <path d="m1633 271c-37.1.19-22.71 36.25-34.58 64.58-8.7 20.75-17.35 19.72-19.91 35.26-3.21 19.53 10.46 28.96 6.93 52.91-3.34 22.69-8.82 21.51-10.11 38.08-1.63 20.94 12.64 31.35 4.52 40.01s-27.59-8.93-41.74-4.3c-14.14 4.63-14.84 22.8-14.84 22.8l95.52 4.52s28.71.31 41.52-28.4c10.76-24.09 3.8-64.65 6.47-83.85 2.27-16.28 8.44-23.54 9.45-36.41 1.23-15.64-7.16-22.83-11.77-38.53-7.71-26.26 8.54-66.88-31.46-66.67z" fill="url(#SVGID_47_-5)"/>
   <path d="m1624 354.2c1.05-.1 1.95-.24 2.59-.42 1.59-.44 4.71-7.56 2.13-7.67-7.22-.31-12.22 1.42-14.92 3.57l1.07-.3c1.06-.38 8.98-1.68 11.26-.46s-2.05 5.16-2.05 5.16z" fill="#2a2f3b"/>
   <path d="m1640 347.7s9.6-.94 13.45 2.14c3.17 2.54 1.73 4.23 1.73 4.23 1.72-.18 2.89-.47 2.86-.88-.21-2.81-4.56-6.47-12.89-7.14-1.36-.11-2.82-.14-4.4-.07-.83.03-1.07.79-.96 1.82z" fill="#2a2f3b"/>
   <linearGradient id="SVGID_49_-8" x1="1549" x2="1547" y1="535.1" y2="486" gradientUnits="userSpaceOnUse">
    <stop stop-color="#475065" offset="0"/>
    <stop stop-color="#2f3543" offset=".7609"/>
   </linearGradient>
   <path d="m1535 466.2s8.4 3.04 10.21 11.53-.09 15.41.19 25.71c.31 11.2 5.15 18.8 5.15 18.8l7.4.51s-5.77-5.17-5.21-19.51c.7-18.13 4.19-37.88 4.19-37.88z" fill="url(#SVGID_49_-8)"/>
   <path d="m1537 467.2 19.51-.56-.7 4.61s-1.58-2.96-7.44-2.72c-5.23.21-6 3.3-6 3.3s-.91-1.12-2.23-2.39c-1.28-1.23-3.14-2.24-3.14-2.24z" fill="#20242d"/>
   <path d="m1572 466.7c.34-2.14-7.57-7.23-26.91-8.24-14.11-.74-30.28 1.68-29.61 8.07.82 7.83 14.14 1.06 28.26.51 12.95-.51 27.92 1.8 28.26-.34z" fill="#2f3543"/>
  </g>
  <path d="m1454 521.1c66.37-.1255 140.6 4.347 208.5 5.042" fill="none" stroke="#475271" stroke-width="3.447"/>
  <g transform="matrix(1.057 0 0 1.097 -82.37 -40.75)">
   <path d="m1356 393.6 180.7.0233.01 4.625c-.028 1.366-.9882 3.318-3.494 3.373l-174.3-.0269c-1.285-.173-2.674-1.182-2.91-3.065z" fill="#3c507c" opacity=".852" stroke-width="1.019" style="paint-order:fill markers stroke"/>
   <path d="m1364 397.6a2.982 2.948 0 01-2.981 2.948 2.982 2.948 0 01-2.982-2.947 2.982 2.948 0 012.98-2.95 2.982 2.948 0 012.984 2.946" fill="#667fb5" opacity=".852" style="paint-order:fill markers stroke"/>
   <rect x="1372" y="394.5" width="6.091" height="6.025" rx="1.233" ry=".9378" fill="#4a6499" opacity=".852" style="paint-order:fill markers stroke"/>
   <rect x="1380" y="394.5" width="6.179" height="6.025" rx="1.233" ry=".9378" fill="#4a6499" opacity=".852" style="paint-order:fill markers stroke"/>
  </g>
  <g transform="matrix(1.057 0 0 1.097 -82.37 -40.75)" fill="#51545d">
   <rect x="1371" y="294.4" width="7.71" height="8.129" rx="1.936" ry="1.52" style="paint-order:fill markers stroke"/>
   <rect x="1360" y="294.1" width="7.71" height="8.129" rx="1.602" ry="1.686" style="paint-order:fill markers stroke"/>
   <rect x="1360" y="306.7" width="7.71" height="8.129" rx="1.268" ry="1.52" style="paint-order:fill markers stroke"/>
   <rect x="1371" y="306.7" width="7.71" height="8.129" rx="2.603" ry="2.35" style="paint-order:fill markers stroke"/>
   <rect x="1360" y="319.2" width="7.71" height="8.129" rx="1.769" ry="1.188" style="paint-order:fill markers stroke"/>
   <rect x="1360" y="331.3" width="7.71" height="8.129" rx=".7677" ry="1.354" style="paint-order:fill markers stroke"/>
   <rect x="1360" y="342.4" width="7.71" height="8.129" rx="1.602" ry="1.852" style="paint-order:fill markers stroke"/>
  </g>
  <rect x="1384" y="290.6" width="149.6" height="93.73" rx="0" ry="0" fill="#d7e2ea" stroke-width="1.077" style="paint-order:fill markers stroke"/>
  <rect x="1384" y="290.6" width="149.6" height="7.794" fill="#a5b1ba" stroke-width="1.077" style="paint-order:fill markers stroke"/>
  <g transform="matrix(1.057 0 0 1.097 -82.37 -40.75)" fill="#5c6d78">
   <path d="m1528 305.7a2.248 2.311 0 01-2.248 2.311 2.248 2.311 0 01-2.249-2.31 2.248 2.311 0 012.247-2.312 2.248 2.311 0 012.25 2.309" style="paint-order:fill markers stroke"/>
   <path d="m1512 305.7a2.248 2.311 0 01-2.248 2.311 2.248 2.311 0 01-2.249-2.31 2.248 2.311 0 012.247-2.312 2.248 2.311 0 012.25 2.309" style="paint-order:fill markers stroke"/>
   <path d="m1520 305.7a2.248 2.311 0 01-2.248 2.311 2.248 2.311 0 01-2.249-2.31 2.248 2.311 0 012.247-2.312 2.248 2.311 0 012.25 2.309" style="paint-order:fill markers stroke"/>
  </g>
  <g transform="matrix(1.057 0 0 1.097 -81.9 -55.26)" fill="#518fda">
   <rect class="control-icon play" x="1470" y="341.4" width="7.643" height="22.15" rx=".5381" ry=".3972" opacity="0" stroke-width="0" style="paint-order:fill markers stroke"/>
   <rect class="control-icon stop" x="1476" y="341.4" width="7.877" height="22.15" rx=".5381" ry=".3972" opacity="0" stroke-width="0" style="paint-order:fill markers stroke"/>
   <path d="m1471 341.5v22.04c-13.32 0.1808-36.03 1.358-48.3-0.2203-6.115-2.641-6.233-22.95 3.257-22.44 13.96 0.112 32.73-0.0761 45.04 0.6197z" stroke-width=".235"/>
  </g>
  <path d="m1425 318.5c-4.335 0-7.844 3.51-7.844 7.848v10.12c0 4.337 3.509 7.848 7.844 7.848h69.07c4.335 0 7.842-3.51 7.842-7.848v-10.12c0-4.337-3.507-7.848-7.842-7.848zm0 1.244h69.07c3.666 0 6.598 2.933 6.598 6.604v10.12c0 3.67-2.931 6.604-6.598 6.604h-69.07c1.204 0-6.6-6.686-6.6-6.604v-10.12c0 0.0188 4.371-6.604 6.6-6.604z" color="#000000" fill="#518fda" stroke-miterlimit="10" style="-inkscape-stroke:none"/>
  <g transform="matrix(1.057 0 0 1.097 -81.9 -55.26)">
   <path class="selected" d="m1462 351.3c-0.8455-4.272-6.583-5.088-8.578-1.218-1.945 0.2059-3.387 1.905-3.281 3.864 0.1064 1.961 1.723 3.489 3.681 3.484h7.967c1.695-4e-3 3.065-1.386 3.063-3.087 0.01-1.614-1.245-2.95-2.85-3.044z" fill="#205494" stroke-width=".2541"/>
   <path d="m1456 354.7c-0.8454-0.881-1.546-1.626-1.558-1.655-0.012-0.0322 0.41-0.0535 1.049-0.0535h1.069v-3.082l1.818 3e-3c0.011 8e-3 0.039 0.7694 0.058 1.588l0.035 1.49h1.06c0.6364 0 1.052 0.0213 1.04 0.0536-0.025 0.0659-2.962 3.249-3.005 3.252-0.016 0-0.7212-0.7171-1.567-1.599z" fill="#518fda" stroke-width=".25" style="paint-order:normal"/>
   <g transform="matrix(1.261,0,0,1.398,1611,483.8)" fill="#051839" aria-label="Загрузка">
    <path d="m-142.8-76.62q0 0.627-0.2637 1.148-0.2578 0.5215-0.7734 0.873-0.5391 0.3691-1.283 0.5625-0.7441 0.1875-1.816 0.1875-0.9434 0-1.758-0.1582-0.8086-0.1523-1.488-0.4102v-1.969h0.2109q0.1641 0.09375 0.4922 0.2695 0.334 0.1699 0.668 0.293 0.4219 0.1582 0.7793 0.252 0.3633 0.08789 0.8379 0.08789 0.4629 0 0.8438-0.07617t0.6387-0.2344q0.2871-0.1699 0.4277-0.3926 0.1406-0.2285 0.1406-0.5859 0-0.3398-0.1055-0.5508-0.0996-0.2109-0.3164-0.3457-0.2168-0.123-0.5449-0.1699-0.3223-0.04687-0.7617-0.04687h-1.605v-1.559h1.547q0.4395 0 0.7559-0.06445 0.3164-0.07031 0.4805-0.1934 0.1816-0.1406 0.2461-0.3105 0.0703-0.1699 0.0703-0.4277 0-0.4395-0.4395-0.6387-0.4336-0.1992-1.189-0.1992-0.4512 0-0.8379 0.08789t-0.7383 0.2051q-0.3809 0.1348-0.6094 0.252-0.2285 0.1113-0.4805 0.2285h-0.2168v-1.834q0.5977-0.2168 1.459-0.3926 0.8672-0.1816 1.805-0.1816 1.793 0 2.689 0.5625 0.9024 0.5566 0.9024 1.553 0 0.7441-0.4863 1.283-0.4805 0.5391-1.248 0.7207v0.08789q0.3164 0.05273 0.6621 0.1875 0.3516 0.1289 0.6387 0.3691 0.293 0.2461 0.4805 0.6094 0.1875 0.3574 0.1875 0.9199z"/>
    <path d="m-137.1-75.73v-1.371q-0.4277 0.03516-0.9258 0.09961-0.498 0.05859-0.7559 0.1406-0.3164 0.09961-0.4863 0.293-0.1641 0.1875-0.1641 0.498 0 0.2051 0.0352 0.334t0.1758 0.2461q0.1348 0.1172 0.3223 0.1758 0.1875 0.05273 0.5859 0.05273 0.3164 0 0.6387-0.1289 0.3281-0.1289 0.5742-0.3398zm0 1.02q-0.1699 0.1289-0.4219 0.3105t-0.4746 0.2871q-0.3106 0.1406-0.6445 0.2051-0.334 0.07031-0.7324 0.07031-0.9375 0-1.57-0.5801-0.6328-0.5801-0.6328-1.482 0-0.7207 0.3223-1.178 0.3223-0.457 0.9141-0.7207 0.5859-0.2637 1.453-0.375 0.8672-0.1113 1.799-0.1641v-0.03516q0-0.5449-0.4453-0.75-0.4453-0.2109-1.312-0.2109-0.5215 0-1.113 0.1875-0.5918 0.1816-0.8496 0.2812h-0.1934v-1.588q0.334-0.08789 1.084-0.2051 0.7559-0.123 1.512-0.123 1.799 0 2.596 0.5566 0.8027 0.5508 0.8027 1.734v4.477h-2.092z"/>
    <path d="m-127.8-79.13h-3.211v5.115h-2.109v-6.58h5.32z"/>
    <path d="m-119.9-77.4q0 0.8145-0.252 1.482-0.2461 0.668-0.6504 1.102-0.4219 0.457-0.9551 0.6914t-1.143 0.2344q-0.5625 0-0.9551-0.123-0.3926-0.1172-0.8027-0.334v2.742h-2.109v-8.994h2.109v0.6855q0.4863-0.3867 0.9902-0.627 0.5098-0.2402 1.172-0.2402 1.23 0 1.91 0.9023 0.6856 0.9023 0.6856 2.479zm-2.174 0.04102q0-0.9609-0.3281-1.395-0.3281-0.4336-1.037-0.4336-0.2988 0-0.6152 0.09375-0.3164 0.08789-0.6035 0.2578v3.311q0.2109 0.08203 0.4512 0.1055 0.2402 0.02344 0.4746 0.02344 0.8379 0 1.248-0.4863 0.4102-0.4922 0.4102-1.477z"/>
    <path d="m-115.4-76.34 1.5-4.254h2.168l-3.656 8.994h-2.285l1.043-2.461-2.561-6.533h2.215z"/>
    <path d="m-105-75.88q0 0.5625-0.2754 0.9668-0.2754 0.3984-0.7442 0.6387-0.4746 0.2402-1.055 0.3398-0.5801 0.09961-1.236 0.09961-0.8613 0-1.529-0.1465-0.6621-0.1465-1.295-0.3633v-1.6h0.2344q0.4629 0.2578 1.037 0.4512 0.5742 0.1875 1.172 0.1875 0.2227 0 0.5273-0.0293 0.3106-0.0293 0.4922-0.09961 0.2461-0.09375 0.3691-0.2168 0.1289-0.123 0.1289-0.3926 0-0.252-0.1172-0.3926-0.1113-0.1406-0.3106-0.2051-0.1699-0.05859-0.4336-0.07617-0.2578-0.01758-0.6562-0.01758h-1.008v-1.336h0.8086q0.2344 0 0.5566-0.0059 0.3281-0.0059 0.5156-0.05273 0.2754-0.06445 0.3926-0.2051 0.123-0.1406 0.123-0.3633 0-0.1816-0.123-0.3047-0.123-0.123-0.3223-0.1934-0.1699-0.05859-0.3984-0.08789t-0.4805-0.0293q-0.416 0-0.9726 0.1465-0.5508 0.1465-0.9785 0.3633h-0.2285v-1.576q0.3633-0.1113 1.078-0.2578 0.7207-0.1465 1.471-0.1465 0.6562 0 1.195 0.09961 0.5391 0.09961 0.9551 0.2988 0.4395 0.2168 0.709 0.5625t0.2695 0.8613q0 0.5273-0.3633 0.9434-0.3574 0.416-0.8613 0.5566v0.05273q0.5801 0.1523 0.9668 0.5332 0.3867 0.375 0.3867 0.9961z"/>
    <path d="m-96.51-74.01h-2.438l-1.764-2.607h-0.6738v2.607h-2.109v-6.58h2.109v2.643q0.5859-0.0059 0.8086-0.123 0.2227-0.123 0.5156-0.6387 0.08789-0.1523 0.2109-0.3926 0.123-0.2402 0.1934-0.3691 0.3223-0.5742 0.75-0.8496 0.4336-0.2812 1.201-0.2812 0.2227 0 0.4688 0.0059 0.252 0.0059 0.3398 0.0059v1.758h-0.5742q-0.3516 0-0.5625 0.1758-0.2051 0.1758-0.3574 0.5215-0.1289 0.2871-0.2344 0.457-0.1055 0.1641-0.2695 0.2812z"/>
    <path d="m-91.45-75.73v-1.371q-0.4277 0.03516-0.9258 0.09961-0.498 0.05859-0.7559 0.1406-0.3164 0.09961-0.4863 0.293-0.1641 0.1875-0.1641 0.498 0 0.2051 0.03516 0.334t0.1758 0.2461q0.1348 0.1172 0.3223 0.1758 0.1875 0.05273 0.5859 0.05273 0.3164 0 0.6387-0.1289 0.3281-0.1289 0.5742-0.3398zm0 1.02q-0.1699 0.1289-0.4219 0.3105t-0.4746 0.2871q-0.3105 0.1406-0.6445 0.2051-0.334 0.07031-0.7324 0.07031-0.9375 0-1.57-0.5801-0.6328-0.5801-0.6328-1.482 0-0.7207 0.3223-1.178 0.3223-0.457 0.9141-0.7207 0.5859-0.2637 1.453-0.375 0.8672-0.1113 1.799-0.1641v-0.03516q0-0.5449-0.4453-0.75-0.4453-0.2109-1.312-0.2109-0.5215 0-1.113 0.1875-0.5918 0.1816-0.8496 0.2812h-0.1934v-1.588q0.334-0.08789 1.084-0.2051 0.7559-0.123 1.512-0.123 1.799 0 2.596 0.5566 0.8027 0.5508 0.8027 1.734v4.477h-2.092z"/>
   </g>
  </g>
  <path d="m1375 308-1.656 3.391c-.4559.4058-1.047.6189-1.439-.1884l-.1439-7.703c-.1046-.9553.304-.6746.7677-.3768l6.863 4.773c.5129.6485.2616 1.13-.6959 1.109z" fill="#fff" stroke-width="1.077"/>
 </g>
</svg>
