<svg width="139.7" height="156.1" version="1.1" viewBox="0 0 140 156" xmlns="http://www.w3.org/2000/svg">
 <rect x="-.503" y="-.595" width="141" height="158" rx="0" ry="0" fill="#fff" style="paint-order:stroke fill markers"/>
 <g stroke-linecap="round" stroke-linejoin="round">
  <g transform="translate(1.014)">
   <rect x="21.62" y="13.61" width="94.57" height="101" rx="5.26" ry="5.545" clip-rule="evenodd" fill="#e3e3e3" fill-rule="evenodd" image-rendering="optimizeQuality" shape-rendering="geometricPrecision" style="paint-order:stroke fill markers"/>
  </g>
  <path d="m44.15 24.18h51.33c6.765 0 12.21 5.705 12.21 12.79v49.05c0 7.086-5.447 12.79-12.21 12.79h-51.33c-6.765 0-12.21-5.705-12.21-12.79v-49.05c0-7.086 5.447-12.79 12.21-12.79z" fill="#091a44" stroke-width="1.915"/>
  <path d="m105.7 48.09a20.13 18.88 0 0 1-20.13 18.88 20.13 18.88 0 0 1-20.13-18.88 20.13 18.88 0 0 1 20.13-18.88 20.13 18.88 0 0 1 20.13 18.88z" fill="#091a44" stroke-width="1.469"/>
 </g>
 <path d="m107.3 37.65v12.89h-75.03l-0.08906-12.88z" fill="#15244e" stroke-width=".3762"/>
 <path d="m83.15 29.62c-10.34 0-18.75 8.311-18.75 18.52l0.0023 0.0041c0 0.08193-1.3e-4 0.165 0.0041 0.2419l-12.08 17.3 0.03104 0.03048c-0.3374-0.02524-0.6758-0.03883-1.014-0.04064-7.809 1.75e-4 -14.14 6.105-14.14 13.64 8.28e-4 7.53 6.33 13.63 14.14 13.63 7.809-1.74e-4 14.14-6.101 14.14-13.63-0.0039-0.1607-0.01086-0.3213-0.02072-0.4816l17.26-12.17c0.1398 0.0044 0.2844 0.0082 0.4243 0.0082 10.34 0 18.75-8.315 18.75-18.53 0-10.21-8.401-18.52-18.75-18.52zm0 6.201c6.891 0 12.49 5.538 12.49 12.34 0 6.808-5.603 12.35-12.49 12.35-6.884 0-12.49-5.538-12.49-12.35 0-6.805 5.603-12.34 12.49-12.34zm0.01655 3.052c-5.179 2e-6 -9.38 4.154-9.38 9.274 0 5.12 4.201 9.266 9.38 9.266 5.183 0 9.38-4.146 9.38-9.266 0-5.124-4.197-9.274-9.38-9.274zm-31.85 31.62c4.954 2.62e-4 8.971 3.987 8.971 8.904 1e-5 4.916-4.017 8.904-8.971 8.904-4.954-2.62e-4 -8.971-3.987-8.971-8.904-1.2e-5 -4.916 4.017-8.904 8.971-8.904zm0.04553 2.531c-3.676 8.1e-5 -6.658 2.89-6.658 6.457-3.77e-4 3.566 2.98 6.457 6.658 6.457 3.677-8.1e-5 6.658-2.891 6.658-6.457-8.28e-4 -3.565-2.981-6.457-6.658-6.457z" fill="#fff" stroke-width=".9762" style="-inkscape-stroke:none"/>
 <path d="m40.84 73.02v12.89h-8.864l-0.01053-12.88z" fill="#fff" stroke-width=".3762"/>
 <g transform="translate(-1.267 -10.39)" stroke-width="1.008" aria-label="Steam-install.exe">
  <path d="m43.51 144.6q0 0.5743-0.2663 1.135-0.2598 0.5611-0.7338 0.9506-0.5195 0.4224-1.214 0.6601-0.6884 0.2376-1.662 0.2376-1.046 0-1.883-0.198-0.8312-0.198-1.695-0.5875v-1.637h0.09092q0.7338 0.6204 1.695 0.9571t1.805 0.3366q1.195 0 1.857-0.4555 0.6689-0.4555 0.6689-1.215 0-0.6535-0.3182-0.9637-0.3117-0.3102-0.9546-0.4819-0.4871-0.132-1.059-0.2178-0.565-0.0858-1.201-0.2178-1.286-0.2773-1.909-0.944-0.6169-0.6733-0.6169-1.749 0-1.234 1.026-2.02 1.026-0.7921 2.604-0.7921 1.02 0 1.87 0.198 0.8507 0.198 1.507 0.4885v1.545h-0.09092q-0.552-0.4753-1.455-0.7855-0.8962-0.3168-1.838-0.3168-1.033 0-1.662 0.4356-0.6234 0.4356-0.6234 1.122 0 0.6139 0.3117 0.9638 0.3117 0.3498 1.098 0.5346 0.4156 0.0924 1.182 0.2244 0.7663 0.132 1.299 0.2707 1.078 0.2905 1.624 0.8779 0.5455 0.5875 0.5455 1.644z"/>
  <path d="m49.05 147.4q-0.3442 0.0924-0.7533 0.1518-0.4026 0.0594-0.7208 0.0594-1.11 0-1.688-0.6073t-0.578-1.947v-3.921h-0.8248v-1.043h0.8248v-2.119h1.221v2.119h2.52v1.043h-2.52v3.36q0 0.5809 0.02598 0.9109 0.02598 0.3234 0.1818 0.6073 0.1429 0.2641 0.3896 0.3895 0.2533 0.1188 0.7663 0.1188 0.2987 0 0.6234-0.0858 0.3247-0.0924 0.4676-0.1519h0.06494z"/>
  <path d="m56.42 143.9h-5.345q0 0.6799 0.2013 1.188 0.2013 0.5017 0.552 0.8251 0.3377 0.3168 0.7988 0.4753 0.4676 0.1585 1.026 0.1585 0.7403 0 1.487-0.297 0.7533-0.3036 1.072-0.5941h0.06494v1.353q-0.6169 0.2641-1.26 0.4422t-1.351 0.1782q-1.805 0-2.818-0.9901-1.013-0.9967-1.013-2.825 0-1.808 0.9676-2.871 0.9741-1.063 2.559-1.063 1.468 0 2.26 0.8713 0.7988 0.8713 0.7988 2.475zm-1.188-0.9506q-0.0065-0.9769-0.4871-1.511-0.4741-0.5346-1.448-0.5346-0.9806 0-1.565 0.5875-0.578 0.5875-0.6559 1.459z"/>
  <path d="m63.71 147.5h-1.214v-0.7855q-0.1624 0.1122-0.4416 0.3168-0.2728 0.198-0.5325 0.3168-0.3052 0.1519-0.7014 0.2509-0.3961 0.1056-0.9287 0.1056-0.9806 0-1.662-0.6601t-0.6819-1.683q0-0.8384 0.3507-1.353 0.3572-0.5214 1.013-0.8185 0.6624-0.297 1.591-0.4026 0.9287-0.1056 1.994-0.1585v-0.1914q0-0.4224-0.1494-0.6997-0.1429-0.2773-0.4156-0.4356-0.2598-0.1518-0.6234-0.2046-0.3637-0.0528-0.7598-0.0528-0.4806 0-1.072 0.132-0.591 0.1254-1.221 0.3697h-0.06494v-1.26q0.3572-0.099 1.033-0.2178 0.6754-0.1188 1.331-0.1188 0.7663 0 1.331 0.132 0.5715 0.1254 0.9871 0.4356 0.4091 0.3036 0.6234 0.7855t0.2143 1.194zm-1.214-1.815v-2.053q-0.5585 0.033-1.318 0.099-0.7533 0.066-1.195 0.1914-0.526 0.1519-0.8507 0.4753-0.3247 0.3168-0.3247 0.8779 0 0.6336 0.3767 0.9571 0.3767 0.3168 1.149 0.3168 0.6429 0 1.175-0.2509 0.5325-0.2575 0.9871-0.6139z"/>
  <path d="m76.47 147.5h-1.221v-4.198q0-0.4753-0.04546-0.9175-0.03897-0.4422-0.1753-0.7063-0.1494-0.2838-0.4286-0.429t-0.8053-0.1452q-0.513 0-1.026 0.2641-0.513 0.2575-1.026 0.6601 0.01948 0.1519 0.03247 0.3565 0.01299 0.198 0.01299 0.396v4.719h-1.221v-4.198q0-0.4885-0.04546-0.9241-0.03896-0.4422-0.1753-0.7063-0.1494-0.2838-0.4286-0.4224-0.2792-0.1452-0.8053-0.1452-0.5 0-1.007 0.2508-0.5 0.2509-1 0.6402v5.505h-1.221v-7.373h1.221v0.8185q0.5715-0.4819 1.136-0.7525 0.5715-0.2707 1.214-0.2707 0.7403 0 1.253 0.3168 0.5195 0.3168 0.7728 0.8779 0.7403-0.6336 1.351-0.9109 0.6104-0.2838 1.305-0.2838 1.195 0 1.76 0.7394 0.5715 0.7326 0.5715 2.053z"/>
  <path d="m80.65 147.5h-1.552v-1.881h1.552z"/>
  <path d="m89.35 143.9h-5.345q0 0.6799 0.2013 1.188 0.2013 0.5017 0.552 0.8251 0.3377 0.3168 0.7988 0.4753 0.4676 0.1585 1.026 0.1585 0.7403 0 1.487-0.297 0.7533-0.3036 1.072-0.5941h0.0649v1.353q-0.6169 0.2641-1.26 0.4422-0.6431 0.1782-1.351 0.1782-1.805 0-2.818-0.9901-1.013-0.9967-1.013-2.825 0-1.808 0.9676-2.871 0.9741-1.063 2.559-1.063 1.468 0 2.26 0.8713 0.7988 0.8713 0.7988 2.475zm-1.188-0.9506q-6e-3 -0.9769-0.4871-1.511-0.4741-0.5346-1.448-0.5346-0.9806 0-1.565 0.5875-0.578 0.5875-0.6559 1.459z"/>
  <path d="m97.35 147.5h-1.539l-2.059-2.832-2.072 2.832h-1.422l2.831-3.676-2.805-3.697h1.539l2.046 2.786 2.052-2.786h1.429l-2.851 3.631z"/>
  <path d="m104.7 143.9h-5.345q0 0.6799 0.2013 1.188 0.2013 0.5017 0.552 0.8251 0.3377 0.3168 0.7988 0.4753 0.4676 0.1585 1.026 0.1585 0.7403 0 1.487-0.297 0.7533-0.3036 1.072-0.5941h0.0649v1.353q-0.6169 0.2641-1.26 0.4422t-1.351 0.1782q-1.805 0-2.818-0.9901-1.013-0.9967-1.013-2.825 0-1.808 0.9676-2.871 0.9741-1.063 2.559-1.063 1.468 0 2.26 0.8713 0.7988 0.8713 0.7988 2.475zm-1.188-0.9506q-6e-3 -0.9769-0.4871-1.511-0.4741-0.5346-1.448-0.5346-0.9806 0-1.565 0.5875-0.578 0.5875-0.6559 1.459z"/>
 </g>
 <path d="m84.65 79.51c1.592 0 2.873 1.27 2.873 2.848s-1.281 2.848-2.873 2.848-2.873-1.27-2.873-2.848 1.281-2.848 2.873-2.848z" fill="#fff" stroke-linecap="round" stroke-linejoin="round" stroke-width="4.531" style="paint-order:stroke fill markers"/>
 <g transform="matrix(.2881 0 0 .2947 71.55 60.39)" clip-rule="evenodd" fill="#fff" fill-rule="evenodd" image-rendering="optimizeQuality" shape-rendering="geometricPrecision" stroke-linejoin="round" stroke-width="14.97" style="paint-order:stroke fill markers">
  <path d="m62.87 74.34-13.71 13.56-33.47-12.16 0.2962 33.32 46.8 17.64 47.4-17.03v-40.44l14.81-6.081-15.4-16.12-18.37-6.385 0.2962 5.816 11.26 3.914-39.7 15.06-39.1-14.45 11.26-4.257v-6.385l-19.25 7.906-15.11 15.2 47.4 17.64 14.81-15.2 14.81 15.2 27.25-10.03 0.2962 34.36-42.06 15.51z" fill="#fff" stroke="#091a44" stroke-linejoin="round" stroke-width="14.97" style="paint-order:stroke fill markers"/>
  <g clip-rule="nonzero" fill-rule="nonzero" shape-rendering="auto">
   <path d="m65.98-2.006c-1.721-0.6463-3.62-0.6366-5.334 0.02734l-24.55 9.506c-2.847 1.102-4.739 3.824-4.781 6.877l-0.4199 31.07c-0.04189 3.119 1.856 5.938 4.762 7.072l24.51 9.568c1.725 0.6734 3.639 0.6831 5.371 0.02734l25.16-9.525c2.907-1.101 4.831-3.884 4.834-6.992l0.02539-31.33c-0.0045-0.02281-9e-3 -0.0456-0.01367-0.06836-0.01033-0.06003-0.0214-0.1199-0.0332-0.1797-0.07541-1.274-0.4755-2.508-1.162-3.584-0.1371-0.2433-0.2877-0.4787-0.4512-0.7051-0.7878-1.03-1.83-1.838-3.023-2.344-0.05601-0.04443-0.1127-0.08805-0.1699-0.1309z" color="#000000" fill="#091a44" style="-inkscape-stroke:none"/>
   <path d="m84.01 15.66 4.07-1.372-0.0244 31.33-25.16 9.524-24.51-9.568 0.4189-31.07 24.55-9.506 24.73 9.284-24.86 10.13-0.1594 25.81 20.95-7.963z" color="#000000" style="-inkscape-stroke:none"/>
  </g>
 </g>
 <path d="m90.92 94.08 0.08959-10.66 2.912 2.285 6.585-2.016v7.168z" fill="#091a44"/>
</svg>
