<svg version="1.1" viewBox="0 0 304.3 89.04" xmlns="http://www.w3.org/2000/svg">
 <g transform="matrix(.3715 0 0 .3647 4.453 1.665)" stroke-width=".9295">
  <g transform="matrix(1.015 0 0 1.013 -3.487 .5106)">
   <path d="m53.06 14.88h134.3c17.7 0 31.95 15.41 31.95 34.55v132.5c0 19.14-14.25 34.55-31.95 34.55h-134.3c-17.7 0-31.95-15.41-31.95-34.55v-132.5c0-19.14 14.25-34.55 31.95-34.55z" fill="#091a44" stroke-linecap="round" stroke-linejoin="round" stroke-width="5.09"/>
   <path d="m214.2 79.45a52.67 51 0 0 1-52.67 51 52.67 51 0 0 1-52.67-51 52.67 51 0 0 1 52.67-51 52.67 51 0 0 1 52.67 51z" fill="#091a44" stroke-linecap="round" stroke-linejoin="round" stroke-width="3.906"/>
   <path d="m218.4 51.26v34.81h-196.3l-0.233-34.78z" fill="#15244e"/>
   <path d="m155.1 29.57c-27.05 0-49.05 22.45-49.05 50.03l6e-3 0.01098c0 0.2213-3.4e-4 0.4457 0.0109 0.6535l-31.6 46.74 0.08121 0.0824c-0.8827-0.0682-1.768-0.1048-2.653-0.1098-20.43 4.7e-4 -37 16.49-37 36.83 0.0021 20.34 16.56 36.82 37 36.82 20.43-4.7e-4 36.99-16.48 37-36.82-0.0104-0.4341-0.0284-0.868-0.0542-1.301l45.15-32.87c0.3658 0.0111 0.744 0.022 1.11 0.022 27.06 0 49.05-22.46 49.05-50.05s-21.98-50.03-49.05-50.03zm0 16.75c18.03 0 32.69 14.96 32.69 33.33 0 18.39-14.66 33.35-32.69 33.35-18.01 0-32.67-14.96-32.67-33.35 0-18.38 14.66-33.33 32.67-33.33zm0.0433 8.243c-13.55 6e-6 -24.54 11.22-24.54 25.05s10.99 25.03 24.54 25.03c13.56 0 24.54-11.2 24.54-25.03 0-13.84-10.98-25.05-24.54-25.05zm-83.33 85.4c12.96 7.1e-4 23.47 10.77 23.47 24.05 2.9e-5 13.28-10.51 24.05-23.47 24.05-12.96-7e-4 -23.47-10.77-23.47-24.05-3.2e-5 -13.28 10.51-24.05 23.47-24.05zm0.1191 6.837c-9.618 2.2e-4 -17.42 7.806-17.42 17.44-9.88e-4 9.632 7.797 17.44 17.42 17.44 9.62-2.2e-4 17.42-7.809 17.42-17.44-0.0021-9.63-7.799-17.44-17.42-17.44z" fill="#fff" stroke-width="2.595" style="-inkscape-stroke:none"/>
   <path d="m44.39 146.8v34.81h-23.19l-0.02755-34.78z" fill="#fff"/>
  </g>
 </g>
 <g transform="matrix(1.05 0 0 .9439 116.4 15.94)" fill="#fff">
  <path d="m6.859 36.45c-2.37 2.051-5.396 3.071-9.115 3.071-2.682 0-5.027-0.3782-7.032-1.149-1.993-0.7611-2.417-1.284-3.023-2.203l-0.0055-6.171c1.53 0.9628 4.017 1.92 5.416 2.417 1.394 0.5059 3.05 0.5156 4.747 0.5156 4.027 0 6.048-1.581 6.048-4.717 0-1.326-0.3075-2.356-0.9144-3.089-0.6069-0.7291-1.665-1.212-3.174-1.467l-1.923-0.3281-2.21-0.3099c-2.92-0.4694-5.138-1.513-6.643-3.149l-5.692-3.125 3.24-4.336c-0.5-2.161 1.074-6.233 3.215-8.337 2.149-2.12 5.044-3.172 8.705-3.172 2.917 0.05294 5.37 0.1823 10 2.021l-0.00148 6.84c-3.054-1.699-7.017-2.319-10.2-2.403-1.698 0-3.002 0.4466-3.912 1.356-0.9144 0.9069-1.37 2.047-1.37 3.432 0 0.9934 0.3526 1.895 1.054 2.68 0.7094 0.7975 1.747 1.308 3.125 1.522l2.058 0.3144 1.976 0.3235c1.534 0.2507 2.817 0.6107 3.859 1.071 1.042 0.4512 1.931 1.084 2.665 1.869 1.763 1.846 2.641 4.534 2.641 8.067 0 3.596-1.185 6.407-3.535 8.458zm28.65-28.67v31.4h-6.684v-17.66l-5.129-3.207 5.129-4.472v-6.054h-8.931v-6.594h24.55v6.594zm22.99 31.4v-4.263l-4.426-2.933 4.426-6.141v-24.65h22.54l-0.3224 6.546-15.52 0.04867v8.964h13.49v6.594h-13.49v9.247h15.4l0.4433 6.594zm57.09-0.3441-1.98-6.387h-12.15l-2.01 6.421-7.015 0.3097 4.394-13.42-4.472-3.305 7.45-5.662 5.068-15.6h5.228l12.5 37.99zm-7.934-26.45-4.322 13.8h8.496zm51.28 25.86-0.0848-21.24-6.602 14.43h-4.51l-6.561-14.41-0.2418 21.5-6.442 0.6327v-24.77l-5.243-5.336 5.209-4.606 0.034-3.28h6.602l8.898 20.54 8.857-20.54h6.602v37.99z" stroke-width="4.322"/>
 </g>
</svg>
