<svg version="1.1" viewBox="0 0 182.4 53.66" xmlns="http://www.w3.org/2000/svg">
 <style type="text/css">.custom-controls {
height: 64px;
fill: #fff;
}

.control-icon {
opacity: 0;
animation: icon-fade-in-out 4s ease-in-out infinite;
animation-fill-mode: forwards;
}

.stop {
animation-delay: .3s;
}

.play {
animation-delay: .5s;
}

.gamepad {
animation-delay: .7s;
padding: 0 0 0 20px;
}

@keyframes icon-fade-in-out {
0% {
opacity: 0;
}

10% {
opacity: 1;
}

80% {
opacity: 1;
}

90% {
opacity: 0;
}

100% {
opacity: 0;
}
}</style>
 <g transform="translate(3.922 8.882)">
  <path transform="translate(-3.922,-8.882)" d="m30.31 0.457c-6.433 0.01234-12.63 2.533-17.34 7.057l-1.039-0.8906c-0.7539-0.6457-2.16-0.1759-3.152 1.055-7.332-5.426-2.495-0.7666-0.9434 1.17-0.9919 1.23-1.184 2.741-0.4297 3.387l1.102 0.9414c-1.729 2.941-2.8 6.253-3.404 9.604-8.134e-4 0.004506-0.001142 0.009165-0.001953 0.01367l-0.998 0.005859c-2.049 0.01204-3.609 1.446-3.496 3.217l0.06641 1.047c0.1125 1.77 1.853 3.186 3.902 3.174l0.4375-0.001953c1 5.005 2.74 10.05 6.059 14l-1.072 1.363c-0.6181 0.784-0.1461 2.224 1.059 3.232-5.176 7.478-1.727 3.848 1.146 0.959 1.206 1.008 2.672 1.188 3.291 0.4043l0.9102-1.156c4.142 2.794 8.98 4.285 13.92 4.293 6.315-0.01284 12.4-2.441 17.09-6.818l1.113 0.9531c0.7539 0.6457 2.16 0.1759 3.152-1.055 7.144 4.472 3.198 1.039 0.9414-1.17 0.9919-1.23 1.184-2.741 0.4297-3.387l-1.094-0.9355c1.996-3.286 3.236-7.037 3.723-10.84 0.005941-0.04633 0.006059-0.0942 0.01172-0.1406l1.594-0.009766c2.049-0.01204 3.609-1.446 3.496-3.217l-0.06641-1.047c-0.1125-1.77-1.853-3.186-3.902-3.174l-1.307 0.007813c-0.8492-5.231-3.314-10.3-7.006-14.17l0.709-0.8984c0.6181-0.784 0.1462-2.229-1.059-3.236 3.278-5.287 1.723-4.013-1.145-0.959-1.205-1.008-2.675-1.186-3.293-0.4023l-0.8379 1.061c-3.834-2.241-8.163-3.42-12.56-3.422l-0.007812-0.007812z" fill="#3c6bab" style="paint-order:fill markers stroke"/>
  <g transform="matrix(.6947 0 0 .7126 6.429 -4.271)">
   <path transform="matrix(1.439 0 0 1.403 -14.9 -6.471)" d="m22.39 10.98c-0.1209 0.01412-0.2407 0.04229-0.3574 0.08594l-5.334 1.99c-0.3376 0.1261-0.6131 1.893-0.7812 2.219-1.586 3.068-9.586 19.97-2.99 24.25 0.4724 0.3064 1.092 0.2438 1.516-0.1289l6.342-5.578c0.8976-0.7888 2.041-1.223 3.223-1.223h6.559 6.562c1.182 0 2.325 0.4338 3.223 1.223l6.34 5.578c0.4245 0.3734 1.046 0.436 1.518 0.1289 6.597-4.283-1.404-21.18-2.99-24.25-0.1681-0.3257-0.4463-2.093-0.7832-2.219l-5.332-1.99c-0.4675-0.1746-0.987-0.1091-1.4 0.1738 0 0-1.503 0.9844-1.84 0.9844h-3.611c0.07008 0.09223 0.1226 0.2036 0.1465 0.3301 0.02431 0.129 0.03711 0.2616 0.03711 0.3984 0 1.304-1.139 2.335-2.451 2.105-0.8191-0.1432-1.498-0.8147-1.67-1.648-0.0653-0.3164-0.06044-0.6226 0-0.9062 0.02308-0.1079 0.07168-0.1994 0.1309-0.2793h-2.982c-0.3369 0-2.029-0.9844-2.029-0.9844-0.3105-0.2122-0.6803-0.3021-1.043-0.2598zm6.055 1.244h1.77c-0.01242-0.001902-0.02451-0.004628-0.03711-0.005859h-1.729c-0.00139 0.001846-0.00253 0.004001-0.003907 0.005859zm1.77 0c0.0451 0.006911 0.08933 0.01563 0.1367 0.01563 0.04713 0 0.09298-0.00887 0.1387-0.01563h-0.2754zm0.2754 0h1.762c-0.001399-0.001841-0.002492-0.004031-0.003906-0.005859h-1.721c-0.01247 0.001054-0.02488 0.004051-0.03711 0.005859zm10.28 2.553a1.389 1.425 0 0 1 1.391 1.426 1.389 1.425 0 0 1-1.391 1.426 1.389 1.425 0 0 1-1.389-1.426 1.389 1.425 0 0 1 1.389-1.426zm-20.84 1.426a2.779 2.85 0 0 1 2.777 2.85 2.779 2.85 0 0 1-2.777 2.852 2.779 2.85 0 0 1-2.779-2.852 2.779 2.85 0 0 1 2.779-2.85zm18.06 1.426a1.389 1.425 0 0 1 1.391 1.424 1.389 1.425 0 0 1-1.391 1.426 1.389 1.425 0 0 1-1.389-1.426 1.389 1.425 0 0 1 1.389-1.424zm5.559 0a1.389 1.425 0 0 1 1.389 1.424 1.389 1.425 0 0 1-1.389 1.426 1.389 1.425 0 0 1-1.389-1.426 1.389 1.425 0 0 1 1.389-1.424zm-2.779 2.85a1.389 1.425 0 0 1 1.391 1.426 1.389 1.425 0 0 1-1.391 1.424 1.389 1.425 0 0 1-1.389-1.424 1.389 1.425 0 0 1 1.389-1.426zm-16.03 1.176h1.787c0.2737 0 0.4961 0.2283 0.4961 0.5098v2.34h2.281c0.2737 0 0.4968 0.229 0.4961 0.5098v1.832c0 0.2808-0.2217 0.5098-0.4961 0.5098h-2.283v2.34c0 0.2808-0.2217 0.5098-0.4961 0.5098h-1.785c-0.2737 0-0.4961-0.2283-0.4961-0.5098v-2.34h-2.283c-0.2737 0-0.4961-0.2283-0.4961-0.5098v-1.832c0-0.2808 0.2217-0.5098 0.4961-0.5098h2.283v-2.34c0-0.2808 0.2217-0.5098 0.4961-0.5098zm11.16 1.674a2.779 2.85 0 0 1 2.779 2.852 2.779 2.85 0 0 1-2.779 2.85 2.779 2.85 0 0 1-2.777-2.85 2.779 2.85 0 0 1 2.777-2.852z" fill="#fff" stroke-width=".7036"/>
  </g>
  <g transform="translate(2)" fill="#fff">
   <g fill="#3c6bab">
    <path transform="translate(-5.922,-8.882)" d="m91.12 0.3125c-6.433 0.01234-12.63 2.531-17.34 7.055l-1.039-0.8906c-0.7539-0.6457-2.158-0.174-3.15 1.057-7.332-5.426-2.495-0.7666-0.9434 1.17-0.9919 1.23-1.184 2.739-0.4297 3.385l1.102 0.9434c-1.729 2.941-2.8 6.253-3.404 9.604-7e-4 0.003875-0.001255 0.007842-0.001954 0.01172l-1.006 0.00586c-2.049 0.01204-3.609 1.446-3.496 3.217l0.06641 1.047c0.1125 1.77 1.853 3.186 3.902 3.174l0.4453-0.001953c1 5.006 2.74 10.05 6.059 14l-1.074 1.361c-0.6181 0.784-0.1442 2.226 1.061 3.234-5.176 7.478-1.728 3.848 1.145 0.959 1.206 1.008 2.672 1.188 3.291 0.4043l0.9121-1.156c4.142 2.794 8.98 4.285 13.92 4.293 6.315-0.01284 12.4-2.441 17.09-6.818l1.113 0.9531c0.7539 0.6457 2.158 0.174 3.15-1.057 7.144 4.472 3.2 1.041 0.9434-1.168 0.9919-1.23 1.184-2.741 0.4297-3.387l-1.094-0.9355c1.996-3.286 3.236-7.037 3.723-10.84 0.00594-0.04633 0.00606-0.0942 0.01172-0.1406l1.586-0.009766c2.049-0.01204 3.609-1.446 3.496-3.217l-0.06641-1.047c-0.1125-1.77-1.853-3.186-3.902-3.174l-1.299 0.007812c-0.8492-5.231-3.314-10.3-7.006-14.17l0.709-0.9004c0.6181-0.784 0.1462-2.227-1.059-3.234 3.278-5.287 1.723-4.013-1.145-0.959-1.205-1.008-2.675-1.188-3.293-0.4043l-0.8379 1.062c-3.834-2.241-8.165-3.422-12.56-3.424l-0.007812-0.005859z" style="paint-order:fill markers stroke"/>
    <path transform="translate(-5.922,-8.882)" d="m151.9 0.457c-6.433 0.01234-12.63 2.533-17.34 7.057l-1.039-0.8906c-0.7539-0.6457-2.16-0.1759-3.152 1.055-7.332-5.426-2.493-0.7666-0.9414 1.17-0.9919 1.23-1.184 2.741-0.4297 3.387l1.1 0.9414c-1.729 2.941-2.8 6.253-3.404 9.604-5.8e-4 0.003245-0.00136 0.00652-0.00195 0.009765l-0.9629 0.00586c-2.049 0.01204-3.609 1.446-3.496 3.217l0.0664 1.047c0.1125 1.77 1.853 3.186 3.902 3.174l0.4023-0.001953c1 5.006 2.739 10.05 6.059 14l-1.072 1.363c-0.6181 0.784-0.1442 2.224 1.061 3.232-5.176 7.478-1.728 3.848 1.145 0.959 1.206 1.008 2.672 1.188 3.291 0.4043l0.9102-1.156c4.142 2.794 8.98 4.285 13.92 4.293 6.315-0.01284 12.4-2.441 17.09-6.818l1.113 0.9531c0.7539 0.6457 2.16 0.1759 3.152-1.055 7.144 4.472 3.2 1.039 0.9434-1.17 0.9919-1.23 1.184-2.741 0.4297-3.387l-1.094-0.9355c1.996-3.286 3.236-7.037 3.723-10.84 0.00612-0.04767 0.00786-0.09676 0.01367-0.1445l1.625-0.009766c2.049-0.01204 3.609-1.446 3.496-3.217l-0.06641-1.047c-0.1125-1.77-1.853-3.186-3.902-3.174l-1.342 0.007813c-0.8498-5.23-3.313-10.3-7.004-14.17l0.707-0.8984c0.6181-0.784 0.1462-2.229-1.059-3.236 3.278-5.287 1.723-4.013-1.145-0.959-1.205-1.008-2.675-1.186-3.293-0.4023l-0.8359 1.061c-3.834-2.241-8.165-3.42-12.56-3.422l-0.00781-0.007812z" style="paint-order:fill markers stroke"/>
   </g>
   <g transform="matrix(.1499 0 0 .1573 128.8 -.6789)">
    <path d="m194.7 26h-11.71v-13.71c0-6.622-4.714-12.29-11.34-12.29h-110.7c-6.622 0-12 5.669-12 12.29v13.71h-11.98c-5.165 0-15.02 2.772-15.02 14.76v19.69c0 21.34 14.73 39.33 34.61 44.59 8.514 17.11 23.48 30.12 41.46 35.46-2.939 1.324-4.98 4.241-4.98 7.64 0 1.813.6 3.854 1.59 4.854h-.327c-4.518 0-8.213 4-8.472 8h-10.95c-2.935 0-5.694 1.122-7.771 3.21-2.077 2.087-3.212 4.839-3.197 7.773l.184 36.02h-5.072c-6.489 0-12.08 5.261-12.08 11.75v.5c0 6.489 5.594 11.75 12.08 11.75h113.5c6.489 0 11.42-5.261 11.42-11.75v-.5c0-6.489-4.927-11.75-11.42-11.75h-4.073l.183-36.03c.015-2.935-1.12-5.673-3.197-7.761-2.076-2.087-4.836-3.209-7.771-3.209h-10.94c-.259-4-3.954-8-8.472-8h-.327c.99-1 1.578-3.04 1.578-4.854 0-3.4-2.052-6.322-4.991-7.646 17.98-5.337 32.64-18.35 41.15-35.46 19.88-5.258 34.28-23.25 34.28-44.59v-19c0-12.53-9.8-15.45-15.29-15.45zm-154.7 38.8v-20.8h9v28.23c0 6.394.735 12.59 2.247 18.48-6.913-6.525-11.25-15.73-11.25-25.92zm96.92 25.29-20.59-14.96-20.58 14.96 7.863-24.16-20.58-14.92h25.44l7.863-24.2 7.862 24.2h25.44l-20.58 14.92zm55.08-25.29c0 10.19-4.334 19.4-11.25 25.92 1.513-5.898 2.249-12.09 2.249-18.49v-28.23h9z"/>
   </g>
   <g transform="matrix(1.727 0 0 1.736 -80.31 9.982)">
    <path d="m95.78-3.825c-4.81 0-8.71 3.813-8.71 8.518 0 4.703 3.9 8.516 8.71 8.516 4.811 0 8.71-3.813 8.71-8.516 0-4.704-3.9-8.518-8.71-8.518zm6.901 8.767c-0.3062 0.5661-0.6405 0.9083-1.27 1.098-0.3334-1.119 0.3534-2.388 1.49-2.745 0.1911 0.6194 0.0889 1.079-0.2198 1.647zm-0.6852-3.894c0.3849 0.5243 0.443 0.9929 0.3408 1.628-0.1022 0.6347-0.3032 1.063-0.8382 1.445-0.6868-0.9539-0.459-2.372 0.4975-3.073zm1.015 4.66c-0.0258 0.6463-0.2772 1.049-0.7568 1.488-0.479 0.4375-0.9065 0.6549-1.569 0.6355 0.0595-1.167 1.131-2.148 2.326-2.123zm-10.1 1.226h0.9314c0.3276 0 0.537-0.01985 0.6288-0.06009 0.09191-0.03988 0.1605-0.1057 0.2066-0.1982 0.04578-0.09144 0.06751-0.2851 0.06751-0.5795v-4.998h-1.834v-1.242c0.5239-0.05155 0.9264-0.105 1.206-0.1602 0.4191-0.08186 0.8644-0.1923 1.336-0.3335 0.2626-0.07594 0.5076-0.1686 0.7348-0.2743h0.642v7.009c0 0.3032 0.01265 0.4852 0.03919 0.5453 0.0399 0.1057 0.1081 0.181 0.2089 0.2271 0.09993 0.04459 0.2852 0.06653 0.5545 0.06653h0.9218v1.243h-5.642v-1.245h-0.0012zm-3.347-5.886c0.9553 0.7014 1.184 2.119 0.4932 3.073-0.5331-0.3833-0.7335-0.8102-0.835-1.445-0.1021-0.635-0.04418-1.104 0.3418-1.628zm-0.9079 2.247c1.137 0.3564 1.823 1.626 1.491 2.745-0.6316-0.1895-0.9651-0.5317-1.27-1.098-0.3085-0.5681-0.4104-1.028-0.2203-1.647zm2.216 4.535c-0.6619 0.0209-1.09-0.1984-1.568-0.635-0.4811-0.4384-0.7314-0.8416-0.7568-1.487 1.195-0.02456 2.266 0.9564 2.324 2.122zm-1.627 0.1961c1.122-0.4041 2.464 0.1811 2.906 1.266-0.617 0.2296-1.093 0.1604-1.694-0.1012-0.5999-0.2611-0.9742-0.5622-1.212-1.165zm2.967 2.684c-0.6532-0.05713-1.105-0.2238-1.531-0.7165 0.9252-0.7376 2.39-0.6119 3.167 0.2724-0.5087 0.4137-0.9798 0.4993-1.635 0.4441zm4.323 1.778c-0.3151-0.09144-0.4815-0.2602-0.6391-0.5405-0.06181-0.1087-0.09209-0.2078-0.1188-0.3097-0.02636 0.1019-0.057 0.201-0.1179 0.3097-0.1571 0.2823-0.3231 0.4488-0.6402 0.5411-0.1591-0.5605 0.1902-1.186 0.7581-1.359 0.5668 0.1717 0.9195 0.7987 0.7579 1.358zm0.6402-0.9006c-0.6361-0.1545-1.055-0.3889-1.398-0.9416-0.3447 0.5526-0.7634 0.7873-1.399 0.9403-0.638 0.1559-1.117 0.1421-1.685-0.1905 0.6286-0.9921 2.054-1.337 3.085-0.75 1.03-0.5871 2.455-0.2423 3.086 0.75-0.5711 0.3327-1.05 0.3463-1.689 0.1918zm2.167-0.8769c-0.6546 0.0573-1.129-0.03048-1.637-0.4441 0.7789-0.8843 2.241-1.01 3.168-0.2724-0.4268 0.4926-0.8781 0.6592-1.531 0.7165zm1.755-1.518c-0.6019 0.2602-1.076 0.3295-1.696 0.0998 0.4446-1.084 1.785-1.668 2.908-1.266-0.2389 0.6025-0.6117 0.9036-1.212 1.166z" stroke-width=".1761"/>
   </g>
  </g>
 </g>
</svg>
