<svg width="120" height="120" version="1.1" viewBox="0 0 120 120" xmlns="http://www.w3.org/2000/svg">
 <path d="m30.87 1.687h57.73c16.49 0 29.76 11.51 29.76 25.81v65.64c0 14.3-13.27 25.81-29.76 25.81h-57.73c-16.49 0-29.76-11.51-29.76-25.81v-65.64c0-14.3 13.27-25.81 29.76-25.81z" fill="#0d2662" stroke-linecap="round" stroke-linejoin="round" stroke-width="10.52" style="paint-order:stroke fill markers"/>
 <g fill="#fff">
  <path d="m30.97 46.59c-5.8-0.5502-5.618-10.98 1.091-11.11l45.2 0.2697-6.749 51.65c6.026-4.202 13.62-6.806 23.59 0.3091l-7.13-52.06 18.26 0.1493c1.713 0.08782 2.08-0.1634 2.097-1.789l-2e-3 -9.973c0.0629-3.984-2.178-4.356-5.008-4.251l-46.28-0.0017-30.74-0.02119c-7.93 1.109-12.43 7.56-14.22 13.49-1.254 4.678-0.9826 10.22 0 14.9 1.691 5.553 4.285 8.182 11.41 10.74 5.377 1.065 11.93 0.5132 22.99 1.167 9.64-0.4413 9.483 10.09 2.575 10.99l-23.87-5.335c12.42 7.069 7.578 18.54 0.9182 22.27l30.96-7.014c9.57 0.6354 14.03-14.63 11.37-22.64-2.668-8.027-10.74-11.05-22.7-11.35-2.895 0.06817-11.5-0.4582-13.76-0.3908z"/>
  <path d="m82.13 90.16c2.434 0 4.393 1.96 4.393 4.396s-1.959 4.396-4.393 4.396-4.393-1.96-4.393-4.396 1.959-4.396 4.393-4.396z" stroke-linecap="round" stroke-linejoin="round" stroke-width="6.96" style="paint-order:stroke fill markers"/>
  <path d="m20.25 72.92c2.434 0 4.393 1.96 4.393 4.396s-1.959 4.396-4.393 4.396-4.393-1.96-4.393-4.396 1.959-4.396 4.393-4.396z" stroke-linecap="round" stroke-linejoin="round" stroke-width="6.96" style="paint-order:stroke fill markers"/>
 </g>
 <g transform="translate(46.91 2.028)" fill="#fff" stroke-linecap="round" stroke-linejoin="round">
  <path d="m-26.52 61.52c-7.719 0-14.22 6.158-14.22 13.76 0 7.603 6.501 13.76 14.22 13.76s14.22-6.16 14.22-13.76-6.501-13.76-14.22-13.76zm0 5.172c4.963 0 8.959 3.83 8.959 8.589s-3.997 8.591-8.959 8.591c-4.963 0-8.957-3.832-8.957-8.591s3.994-8.589 8.957-8.589z" color="#000000" stroke-width="1.116" style="-inkscape-stroke:none;paint-order:stroke fill markers"/>
  <path d="m35.29 78.1c-8.076 0-14.88 6.488-14.88 14.5 0 8.01 6.801 14.5 14.88 14.5s14.88-6.49 14.88-14.5-6.801-14.5-14.88-14.5zm0 5.449c5.192 0 9.373 4.035 9.373 9.049s-4.181 9.051-9.373 9.051-9.37-4.037-9.37-9.051 4.179-9.049 9.37-9.049z" color="#000000" stroke-width="1.172" style="-inkscape-stroke:none;paint-order:stroke fill markers"/>
 </g>
</svg>
